<svg xmlns="http://www.w3.org/2000/svg" width="311" height="42.761" viewBox="0 0 311 42.761">
  <g id="colour_horizontal" transform="translate(0.002)">
    <g id="DSC_KIIT_-_Colored_Horizontal_Logo_SVG" data-name="DSC KIIT - Colored Horizontal Logo SVG" transform="translate(-0.002 0)">
      <g id="Group_8" data-name="Group 8">
        <path id="path0" d="M22.631.15A4.366,4.366,0,0,0,21.959.4C21.464.648,8.244,8.127,8.265,8.148a2.013,2.013,0,0,0,.408-.086c1.286-.347,1.835-.155,5.486,1.921A17.235,17.235,0,0,0,17.233,11.6c1.668-.818,8.585-4.872,8.982-5.265A3.707,3.707,0,0,0,22.63.15" transform="translate(-7.35 -0.013)" fill="#ea4235"/>
        <path id="path0-2" d="M235.264,95.158c-4.954,2.981-5.115,3.113-5.487,4.513a3.719,3.719,0,0,0,5.275,4.271c.381-.193,13.569-8.1,13.51-8.1a5.132,5.132,0,0,0-.5.193,2.433,2.433,0,0,1-1.268.19c-1.065,0-1.044,0-4.445-1.929-1.513-.86-2.8-1.578-2.851-1.6s-1.962,1.089-4.239,2.459" transform="translate(-204.23 -82.439)" fill="#fabb04"/>
        <path id="path1" d="M3.267,62.48a4.93,4.93,0,0,0-1.3.364,2.1,2.1,0,0,0-.473.27,5.325,5.325,0,0,1-.411.376,3.669,3.669,0,0,0-.709.863,3.194,3.194,0,0,0-.325,1.119,3.815,3.815,0,0,0,.378,2.4,1.284,1.284,0,0,1,.113.261,4.724,4.724,0,0,0,1.112,1.085c.008-.013.074.026.145.087.141.121,1.414.848,11.94,6.826,2.223,1.262,2.432,1.338,3.577,1.292a3.7,3.7,0,0,0,2.276-6.428c-.307-.27-6.877-4.062-8.4-4.849-.389-.2-1.87-1.028-3.29-1.837s-2.745-1.528-2.944-1.6a3.914,3.914,0,0,0-1.692-.231" transform="translate(0.002 -55.543)" fill="#4286f5"/>
        <path id="path2" d="M227.2.1a3.651,3.651,0,0,0-2.238,5.257c.388.769.77,1.063,3.085,2.381L231.839,9.9c.928.529,1.888,1.065,2.134,1.189s1.624.9,3.062,1.713c3.154,1.792,3.124,1.78,4.168,1.786a3.507,3.507,0,0,0,3.475-4.47c-.306-1.19-.815-1.726-2.614-2.748-6.571-3.733-9.649-5.483-10.862-6.176-1.926-1.1-2.895-1.364-4-1.089" transform="translate(-199.693 0)" fill="#109d58"/>
      </g>
    </g>
    <g id="Group_1" data-name="Group 1" transform="translate(51.295 29.958)">
      <path id="Path_11" data-name="Path 11" d="M469,271.663h1.594v.054l-3.562,4.111,3.8,5.37v.054h-1.513l-3.12-4.473-1.473,1.7v2.772h-1.232v-9.588h1.232V276.6h.054Z" transform="translate(-463.494 -271.555)" fill="#292929"/>
      <path id="Path_12" data-name="Path 12" d="M534.587,297.073a3.054,3.054,0,0,1,2.156.73,2.59,2.59,0,0,1,.79,2v4.044h-1.179v-.911H536.3a2.351,2.351,0,0,1-2.036,1.125,2.648,2.648,0,0,1-1.815-.643,2.053,2.053,0,0,1-.73-1.607,1.951,1.951,0,0,1,.77-1.62,3.245,3.245,0,0,1,2.055-.6,3.637,3.637,0,0,1,1.808.4v-.281a1.4,1.4,0,0,0-.509-1.091,1.746,1.746,0,0,0-1.192-.449,1.888,1.888,0,0,0-1.634.87l-1.085-.683A3.027,3.027,0,0,1,534.587,297.073Zm-1.594,4.767a.984.984,0,0,0,.408.8,1.5,1.5,0,0,0,.958.321,1.963,1.963,0,0,0,1.386-.575,1.8,1.8,0,0,0,.609-1.352,2.532,2.532,0,0,0-1.607-.455,2.087,2.087,0,0,0-1.252.362,1.074,1.074,0,0,0-.5.9Z" transform="translate(-524.169 -294.153)" fill="#292929"/>
      <path id="Path_13" data-name="Path 13" d="M597.584,271.663v9.588h-1.232v-9.588Z" transform="translate(-581.648 -271.555)" fill="#292929"/>
      <path id="Path_14" data-name="Path 14" d="M620.988,271.566a.869.869,0,1,1-.255-.616A.84.84,0,0,1,620.988,271.566Zm-.255,2.263v6.562H619.5V273.83Z" transform="translate(-602.012 -270.695)" fill="#292929"/>
      <path id="Path_15" data-name="Path 15" d="M646.686,297.291h1.178v.911h.053a2.19,2.19,0,0,1,.864-.8,2.475,2.475,0,0,1,1.212-.321,2.426,2.426,0,0,1,1.855.69,2.753,2.753,0,0,1,.649,1.962v4.124h-1.231v-4.044a1.448,1.448,0,0,0-1.62-1.607,1.54,1.54,0,0,0-1.232.6,2.162,2.162,0,0,0-.5,1.426v3.629h-1.232Z" transform="translate(-626.411 -294.156)" fill="#292929"/>
      <path id="Path_16" data-name="Path 16" d="M711.063,306.955a3.666,3.666,0,0,1-1.031-.141,3.336,3.336,0,0,1-.877-.4,2.839,2.839,0,0,1-.676-.6,2.543,2.543,0,0,1-.428-.777l1.165-.482a1.844,1.844,0,0,0,.7.924,1.952,1.952,0,0,0,1.152.348,2.038,2.038,0,0,0,1.567-.6,2.338,2.338,0,0,0,.563-1.66v-.629h-.053a2.425,2.425,0,0,1-.944.823,2.822,2.822,0,0,1-1.292.3,2.9,2.9,0,0,1-2.209-1,3.633,3.633,0,0,1-.911-2.491,3.584,3.584,0,0,1,.911-2.477,2.887,2.887,0,0,1,2.209-1.018,2.825,2.825,0,0,1,1.292.3,2.425,2.425,0,0,1,.944.824h.054v-.911h1.178v6.281a3.349,3.349,0,0,1-.9,2.477A3.261,3.261,0,0,1,711.063,306.955Zm.04-4.018a1.886,1.886,0,0,0,1.487-.656,2.72,2.72,0,0,0,0-3.415,1.9,1.9,0,0,0-1.487-.67,1.921,1.921,0,0,0-1.487.67,2.447,2.447,0,0,0-.6,1.7,2.417,2.417,0,0,0,.6,1.7,1.92,1.92,0,0,0,1.487.669Z" transform="translate(-680.745 -294.152)" fill="#292929"/>
      <path id="Path_17" data-name="Path 17" d="M779.25,297.073a3.053,3.053,0,0,1,2.156.73,2.591,2.591,0,0,1,.79,2v4.044h-1.178v-.911h-.054a2.351,2.351,0,0,1-2.036,1.125,2.648,2.648,0,0,1-1.815-.643,2.053,2.053,0,0,1-.73-1.607,1.951,1.951,0,0,1,.77-1.62,3.245,3.245,0,0,1,2.055-.6,3.638,3.638,0,0,1,1.808.4v-.281a1.4,1.4,0,0,0-.509-1.091,1.746,1.746,0,0,0-1.192-.449,1.888,1.888,0,0,0-1.634.87l-1.085-.683A3.026,3.026,0,0,1,779.25,297.073Zm-1.594,4.767a.984.984,0,0,0,.408.8,1.5,1.5,0,0,0,.957.321,1.964,1.964,0,0,0,1.386-.575,1.8,1.8,0,0,0,.609-1.352,2.531,2.531,0,0,0-1.607-.455,2.086,2.086,0,0,0-1.252.362,1.074,1.074,0,0,0-.5.9Z" transform="translate(-741.754 -294.153)" fill="#292929"/>
      <path id="Path_18" data-name="Path 18" d="M870.313,281.251h-1.232v-9.588h1.232Z" transform="translate(-824.193 -271.555)" fill="#292929"/>
      <path id="Path_19" data-name="Path 19" d="M895.217,297.291H896.4v.911h.053a2.189,2.189,0,0,1,.863-.8,2.476,2.476,0,0,1,1.212-.321,2.425,2.425,0,0,1,1.855.69,2.752,2.752,0,0,1,.649,1.962v4.124H899.8v-4.044a1.448,1.448,0,0,0-1.621-1.607,1.54,1.54,0,0,0-1.232.6,2.16,2.16,0,0,0-.5,1.426v3.629h-1.232Z" transform="translate(-847.437 -294.156)" fill="#292929"/>
      <path id="Path_20" data-name="Path 20" d="M961.293,302.023a1.779,1.779,0,0,1-.75,1.446,2.964,2.964,0,0,1-1.888.589,3,3,0,0,1-1.741-.516,2.84,2.84,0,0,1-1.071-1.359l1.1-.469a2.038,2.038,0,0,0,.7.917,1.71,1.71,0,0,0,1.011.328,1.782,1.782,0,0,0,.984-.255.723.723,0,0,0,.4-.6q0-.629-.964-.924l-1.125-.281q-1.915-.482-1.915-1.848a1.707,1.707,0,0,1,.73-1.44,3.347,3.347,0,0,1,3.442-.127,2.258,2.258,0,0,1,.984,1.112l-1.1.455a1.383,1.383,0,0,0-.609-.65,1.913,1.913,0,0,0-.944-.234,1.583,1.583,0,0,0-.863.241.7.7,0,0,0-.382.589q0,.562,1.058.8l.991.255Q961.292,300.537,961.293,302.023Z" transform="translate(-901.353 -294.148)" fill="#292929"/>
      <path id="Path_21" data-name="Path 21" d="M1012.827,289.537a1.873,1.873,0,0,1-1.332-.5,1.837,1.837,0,0,1-.542-1.379v-3.669H1009.8v-1.125h1.152v-2.009h1.232v2.009h1.607v1.125h-1.607v3.268a1.2,1.2,0,0,0,.255.891.827.827,0,0,0,.576.234,1.23,1.23,0,0,0,.288-.033,1.46,1.46,0,0,0,.261-.087l.388,1.1A3.308,3.308,0,0,1,1012.827,289.537Z" transform="translate(-949.339 -279.733)" fill="#292929"/>
      <path id="Path_22" data-name="Path 22" d="M1057.069,271.566a.869.869,0,1,1-.255-.616A.841.841,0,0,1,1057.069,271.566Zm-.255,2.263v6.562h-1.232V273.83Z" transform="translate(-989.831 -270.695)" fill="#292929"/>
      <path id="Path_23" data-name="Path 23" d="M1081.312,289.537a1.873,1.873,0,0,1-1.332-.5,1.836,1.836,0,0,1-.542-1.379v-3.669h-1.152v-1.125h1.152v-2.009h1.232v2.009h1.607v1.125h-1.607v3.268a1.2,1.2,0,0,0,.254.891.827.827,0,0,0,.576.234,1.232,1.232,0,0,0,.288-.033,1.47,1.47,0,0,0,.261-.087l.389,1.1A3.313,3.313,0,0,1,1081.312,289.537Z" transform="translate(-1010.245 -279.733)" fill="#292929"/>
      <path id="Path_24" data-name="Path 24" d="M1129.843,305.571h-1.179v-.911h-.053a2.191,2.191,0,0,1-.864.8,2.477,2.477,0,0,1-1.212.321,2.425,2.425,0,0,1-1.855-.69,2.752,2.752,0,0,1-.649-1.962v-4.124h1.232v4.044a1.448,1.448,0,0,0,1.62,1.607,1.54,1.54,0,0,0,1.232-.6,2.157,2.157,0,0,0,.494-1.426v-3.629h1.232Z" transform="translate(-1050.928 -295.874)" fill="#292929"/>
      <path id="Path_25" data-name="Path 25" d="M1189.362,289.537a1.874,1.874,0,0,1-1.333-.5,1.837,1.837,0,0,1-.542-1.379v-3.669h-1.151v-1.125h1.151v-2.009h1.232v2.009h1.607v1.125h-1.607v3.268a1.2,1.2,0,0,0,.255.891.827.827,0,0,0,.575.234,1.228,1.228,0,0,0,.288-.033,1.456,1.456,0,0,0,.261-.087l.389,1.1A3.31,3.31,0,0,1,1189.362,289.537Z" transform="translate(-1106.337 -279.733)" fill="#292929"/>
      <path id="Path_26" data-name="Path 26" d="M1231.882,304.063a3.138,3.138,0,0,1-2.384-.991,3.5,3.5,0,0,1-.937-2.5,3.564,3.564,0,0,1,.91-2.5,3.275,3.275,0,0,1,4.654-.054,3.774,3.774,0,0,1,.863,2.645l-.014.134h-5.156a2.137,2.137,0,0,0,.643,1.553,2.076,2.076,0,0,0,3.321-.589l1.1.536a3.27,3.27,0,0,1-1.225,1.3A3.39,3.39,0,0,1,1231.882,304.063Zm-1.969-4.285h3.763a1.635,1.635,0,0,0-.555-1.132,1.948,1.948,0,0,0-1.346-.449,1.785,1.785,0,0,0-1.2.429,2.043,2.043,0,0,0-.662,1.152Z" transform="translate(-1143.889 -294.153)" fill="#292929"/>
      <path id="Path_27" data-name="Path 27" d="M1319.07,300.568a3.471,3.471,0,0,1,.951-2.5,3.241,3.241,0,0,1,2.423-.991,3.2,3.2,0,0,1,2.411.991,3.734,3.734,0,0,1,0,5.008,3.2,3.2,0,0,1-2.411.991,3.241,3.241,0,0,1-2.423-.991A3.47,3.47,0,0,1,1319.07,300.568Zm1.232,0a2.4,2.4,0,0,0,.616,1.714,2.1,2.1,0,0,0,3.053,0,2.673,2.673,0,0,0,0-3.415,2.075,2.075,0,0,0-3.053,0,2.384,2.384,0,0,0-.616,1.7Z" transform="translate(-1224.381 -294.153)" fill="#292929"/>
      <path id="Path_28" data-name="Path 28" d="M1387.5,270.686a2.331,2.331,0,0,1,1.1.228l-.335,1.085a1.6,1.6,0,0,0-.723-.161.962.962,0,0,0-.743.315,1.19,1.19,0,0,0-.288.837v.83h1.713v1.125h-1.714v5.437h-1.232v-5.437h-1.232v-1.125h1.232v-.951a2.1,2.1,0,0,1,.623-1.58A2.2,2.2,0,0,1,1387.5,270.686Z" transform="translate(-1282.167 -270.684)" fill="#292929"/>
      <path id="Path_29" data-name="Path 29" d="M1461.26,281.251h-1.232v-9.588h1.232Z" transform="translate(-1349.738 -271.555)" fill="#292929"/>
      <path id="Path_30" data-name="Path 30" d="M1486.167,297.291h1.178v.911h.053a2.189,2.189,0,0,1,.863-.8,2.478,2.478,0,0,1,1.212-.321,2.426,2.426,0,0,1,1.855.69,2.756,2.756,0,0,1,.649,1.962v4.124h-1.232v-4.044a1.448,1.448,0,0,0-1.621-1.607,1.539,1.539,0,0,0-1.232.6,2.157,2.157,0,0,0-.5,1.426v3.629h-1.232Z" transform="translate(-1372.985 -294.156)" fill="#292929"/>
      <path id="Path_31" data-name="Path 31" d="M1551,281.466a2.884,2.884,0,0,1-2.21-1.018,3.826,3.826,0,0,1,0-4.955,2.887,2.887,0,0,1,2.21-1.018,2.831,2.831,0,0,1,1.319.308,2.314,2.314,0,0,1,.918.817h.053l-.053-.911v-3.025h1.232v9.588h-1.178v-.911h-.054a2.31,2.31,0,0,1-.918.817,2.829,2.829,0,0,1-1.319.308Zm.2-1.125a1.886,1.886,0,0,0,1.486-.656,2.72,2.72,0,0,0,0-3.415,1.9,1.9,0,0,0-1.486-.67,1.921,1.921,0,0,0-1.487.67,2.447,2.447,0,0,0-.6,1.7,2.416,2.416,0,0,0,.6,1.7,1.92,1.92,0,0,0,1.487.67Z" transform="translate(-1427.865 -271.555)" fill="#292929"/>
      <path id="Path_32" data-name="Path 32" d="M1625.813,305.571h-1.178v-.911h-.054a2.189,2.189,0,0,1-.863.8,2.477,2.477,0,0,1-1.212.321,2.425,2.425,0,0,1-1.855-.69,2.752,2.752,0,0,1-.65-1.962v-4.124h1.232v4.044a1.448,1.448,0,0,0,1.62,1.607,1.54,1.54,0,0,0,1.232-.6,2.156,2.156,0,0,0,.5-1.426v-3.629h1.232Z" transform="translate(-1492.007 -295.874)" fill="#292929"/>
      <path id="Path_33" data-name="Path 33" d="M1686.543,302.023a1.778,1.778,0,0,1-.75,1.446,2.963,2.963,0,0,1-1.888.589,3,3,0,0,1-1.741-.516,2.841,2.841,0,0,1-1.072-1.359l1.1-.469a2.04,2.04,0,0,0,.7.917,1.708,1.708,0,0,0,1.011.328,1.781,1.781,0,0,0,.984-.255.723.723,0,0,0,.4-.6q0-.629-.964-.924l-1.125-.281q-1.915-.482-1.915-1.848a1.707,1.707,0,0,1,.73-1.44,3.347,3.347,0,0,1,3.442-.127,2.257,2.257,0,0,1,.984,1.112l-1.1.455a1.383,1.383,0,0,0-.609-.65,1.912,1.912,0,0,0-.944-.234,1.585,1.585,0,0,0-.864.241.694.694,0,0,0-.381.589q0,.562,1.058.8l.991.255Q1686.543,300.537,1686.543,302.023Z" transform="translate(-1546.337 -294.148)" fill="#292929"/>
      <path id="Path_34" data-name="Path 34" d="M1738.092,289.537a1.873,1.873,0,0,1-1.332-.5,1.836,1.836,0,0,1-.542-1.379v-3.669h-1.152v-1.125h1.152v-2.009h1.232v2.009h1.607v1.125h-1.607v3.268a1.2,1.2,0,0,0,.254.891.827.827,0,0,0,.575.234,1.228,1.228,0,0,0,.288-.033,1.465,1.465,0,0,0,.261-.087l.388,1.1A3.311,3.311,0,0,1,1738.092,289.537Z" transform="translate(-1594.337 -279.733)" fill="#292929"/>
      <path id="Path_35" data-name="Path 35" d="M1782.52,304.058h-1.231V297.5h1.178v1.071h.053a1.778,1.778,0,0,1,.77-.891,2.141,2.141,0,0,1,1.145-.368,2.312,2.312,0,0,1,.911.161l-.375,1.192a2.044,2.044,0,0,0-.723-.094,1.593,1.593,0,0,0-1.212.562,1.882,1.882,0,0,0-.516,1.312Z" transform="translate(-1635.444 -294.362)" fill="#292929"/>
      <path id="Path_36" data-name="Path 36" d="M1825.158,271.566a.869.869,0,1,1-.254-.616A.839.839,0,0,1,1825.158,271.566Zm-.254,2.263v6.562h-1.232V273.83Z" transform="translate(-1672.913 -270.695)" fill="#292929"/>
      <path id="Path_37" data-name="Path 37" d="M1849.717,297.073a3.052,3.052,0,0,1,2.156.73,2.59,2.59,0,0,1,.79,2v4.044h-1.179v-.911h-.053a2.351,2.351,0,0,1-2.035,1.125,2.648,2.648,0,0,1-1.815-.643,2.053,2.053,0,0,1-.73-1.607,1.952,1.952,0,0,1,.771-1.62,3.245,3.245,0,0,1,2.055-.6,3.637,3.637,0,0,1,1.808.4v-.281a1.4,1.4,0,0,0-.509-1.091,1.746,1.746,0,0,0-1.192-.449,1.889,1.889,0,0,0-1.634.87l-1.084-.683A3.025,3.025,0,0,1,1849.717,297.073Zm-1.594,4.767a.983.983,0,0,0,.408.8,1.5,1.5,0,0,0,.958.321,1.963,1.963,0,0,0,1.386-.575,1.8,1.8,0,0,0,.609-1.352,2.531,2.531,0,0,0-1.607-.455,2.087,2.087,0,0,0-1.252.362A1.074,1.074,0,0,0,1848.123,301.84Z" transform="translate(-1693.748 -294.153)" fill="#292929"/>
      <path id="Path_38" data-name="Path 38" d="M1912.71,271.663v9.588h-1.232v-9.588Z" transform="translate(-1751.225 -271.555)" fill="#292929"/>
      <path id="Path_39" data-name="Path 39" d="M1957.01,272.841v8.41h-1.232v-8.41H1953.1v-1.178h6.588v1.178Z" transform="translate(-1788.24 -271.555)" fill="#292929"/>
      <path id="Path_40" data-name="Path 40" d="M2012.082,304.063a3.138,3.138,0,0,1-2.384-.991,3.5,3.5,0,0,1-.938-2.5,3.565,3.565,0,0,1,.911-2.5,3.274,3.274,0,0,1,4.654-.054,3.775,3.775,0,0,1,.863,2.645l-.013.134h-5.156a2.144,2.144,0,0,0,.643,1.553,2.077,2.077,0,0,0,3.322-.589l1.1.536a3.271,3.271,0,0,1-1.225,1.3A3.391,3.391,0,0,1,2012.082,304.063Zm-1.969-4.285h3.763a1.635,1.635,0,0,0-.556-1.132,1.946,1.946,0,0,0-1.346-.449,1.789,1.789,0,0,0-1.2.429,2.049,2.049,0,0,0-.663,1.152Z" transform="translate(-1837.741 -294.153)" fill="#292929"/>
      <path id="Path_41" data-name="Path 41" d="M2077.113,304.052a3.24,3.24,0,0,1-2.424-.991,3.527,3.527,0,0,1-.95-2.5,3.473,3.473,0,0,1,.95-2.5,3.24,3.24,0,0,1,2.424-.991,3,3,0,0,1,2.879,1.888l-1.125.469a1.851,1.851,0,0,0-1.834-1.232,1.9,1.9,0,0,0-1.46.683,2.664,2.664,0,0,0,0,3.375,1.9,1.9,0,0,0,1.46.683,1.929,1.929,0,0,0,1.9-1.232l1.1.469a2.934,2.934,0,0,1-1.131,1.386A3.2,3.2,0,0,1,2077.113,304.052Z" transform="translate(-1895.528 -294.142)" fill="#292929"/>
      <path id="Path_42" data-name="Path 42" d="M2139.8,271.663h1.231v3.026l-.052.911h.052a2.2,2.2,0,0,1,.864-.8,2.473,2.473,0,0,1,1.212-.321,2.427,2.427,0,0,1,1.855.69,2.753,2.753,0,0,1,.649,1.962v4.124h-1.232v-3.883q0-1.768-1.567-1.768a1.582,1.582,0,0,0-1.265.623,2.213,2.213,0,0,0-.516,1.453v3.576H2139.8Z" transform="translate(-1954.277 -271.555)" fill="#292929"/>
      <path id="Path_43" data-name="Path 43" d="M2204.9,297.291h1.178v.911h.054a2.189,2.189,0,0,1,.863-.8,2.478,2.478,0,0,1,1.212-.321,2.424,2.424,0,0,1,1.855.69,2.751,2.751,0,0,1,.65,1.962v4.124h-1.232v-4.044a1.449,1.449,0,0,0-1.621-1.607,1.539,1.539,0,0,0-1.231.6,2.16,2.16,0,0,0-.5,1.426v3.629H2204.9Z" transform="translate(-2012.173 -294.156)" fill="#292929"/>
      <path id="Path_44" data-name="Path 44" d="M2266.609,300.568a3.47,3.47,0,0,1,.951-2.5,3.242,3.242,0,0,1,2.424-.991,3.2,3.2,0,0,1,2.41.991,3.735,3.735,0,0,1,0,5.008,3.2,3.2,0,0,1-2.41.991,3.242,3.242,0,0,1-2.424-.991A3.466,3.466,0,0,1,2266.609,300.568Zm1.232,0a2.4,2.4,0,0,0,.616,1.714,2.1,2.1,0,0,0,3.053,0,2.676,2.676,0,0,0,0-3.415,2.075,2.075,0,0,0-3.053,0A2.386,2.386,0,0,0,2267.841,300.568Z" transform="translate(-2067.053 -294.153)" fill="#292929"/>
      <path id="Path_45" data-name="Path 45" d="M2337.9,271.663v9.588h-1.231v-9.588Z" transform="translate(-2129.358 -271.555)" fill="#292929"/>
      <path id="Path_46" data-name="Path 46" d="M2356.87,300.568a3.476,3.476,0,0,1,.95-2.5,3.242,3.242,0,0,1,2.424-.991,3.2,3.2,0,0,1,2.41.991,3.734,3.734,0,0,1,0,5.008,3.2,3.2,0,0,1-2.41.991,3.243,3.243,0,0,1-2.424-.991A3.475,3.475,0,0,1,2356.87,300.568Zm1.232,0a2.4,2.4,0,0,0,.616,1.714,2.1,2.1,0,0,0,3.053,0,2.674,2.674,0,0,0,0-3.415,2.075,2.075,0,0,0-3.053,0A2.385,2.385,0,0,0,2358.1,300.568Z" transform="translate(-2147.325 -294.153)" fill="#292929"/>
      <path id="Path_47" data-name="Path 47" d="M2427.427,306.955a3.675,3.675,0,0,1-1.031-.141,3.349,3.349,0,0,1-.877-.4,2.826,2.826,0,0,1-.676-.6,2.555,2.555,0,0,1-.429-.777l1.166-.482a1.841,1.841,0,0,0,.7.924,1.952,1.952,0,0,0,1.152.348,2.038,2.038,0,0,0,1.567-.6,2.34,2.34,0,0,0,.562-1.66v-.63h-.053a2.426,2.426,0,0,1-.945.824,2.822,2.822,0,0,1-1.292.3,2.9,2.9,0,0,1-2.209-1,3.63,3.63,0,0,1-.911-2.491,3.58,3.58,0,0,1,.911-2.477,2.886,2.886,0,0,1,2.209-1.018,2.819,2.819,0,0,1,1.292.3,2.427,2.427,0,0,1,.945.823h.053v-.911h1.178v6.281a3.349,3.349,0,0,1-.9,2.477A3.263,3.263,0,0,1,2427.427,306.955Zm.04-4.017a1.888,1.888,0,0,0,1.487-.656,2.721,2.721,0,0,0,0-3.415,1.9,1.9,0,0,0-1.487-.67,1.922,1.922,0,0,0-1.487.67,2.448,2.448,0,0,0-.6,1.7,2.417,2.417,0,0,0,.6,1.7,1.921,1.921,0,0,0,1.486.67Z" transform="translate(-2207.155 -294.152)" fill="#292929"/>
      <path id="Path_48" data-name="Path 48" d="M2497.016,299.009l-4.112,9.454h-1.272l1.526-3.308-2.7-6.147h1.339l1.955,4.714h.027l1.9-4.714Z" transform="translate(-2266.123 -295.874)" fill="#292929"/>
    </g>
    <g id="Group_2" data-name="Group 2" transform="translate(52.06 1.821)">
      <path id="Path_49" data-name="Path 49" d="M470.406,37.123v-17.2h5.26a8.579,8.579,0,0,1,6.328,2.378,8.387,8.387,0,0,1,2.39,6.22,8.379,8.379,0,0,1-2.39,6.232,8.6,8.6,0,0,1-6.328,2.366Zm2.21-15.082V35.009h3.05a6.419,6.419,0,0,0,4.731-1.717,6.415,6.415,0,0,0,1.729-4.767,5.98,5.98,0,0,0-6.46-6.484Z" transform="translate(-470.406 -19.543)" fill="#292929"/>
      <path id="Path_50" data-name="Path 50" d="M615.025,78.036a5.628,5.628,0,0,1-4.275-1.777,6.275,6.275,0,0,1-1.681-4.491,6.392,6.392,0,0,1,1.633-4.479,5.872,5.872,0,0,1,8.345-.1,6.771,6.771,0,0,1,1.549,4.743l-.024.24h-9.246a3.832,3.832,0,0,0,1.153,2.786,3.723,3.723,0,0,0,5.956-1.057l1.969.961a5.865,5.865,0,0,1-2.2,2.33A6.078,6.078,0,0,1,615.025,78.036Zm-3.531-7.685h6.749a2.931,2.931,0,0,0-1-2.029,3.49,3.49,0,0,0-2.414-.8,3.2,3.2,0,0,0-2.15.769,3.671,3.671,0,0,0-1.189,2.066Z" transform="translate(-593.723 -60.072)" fill="#292929"/>
      <path id="Path_51" data-name="Path 51" d="M726.486,80.737h-2.21l-4.755-11.768h2.4l3.458,9.126h.048l3.506-9.126h2.354Z" transform="translate(-691.952 -63.157)" fill="#292929"/>
      <path id="Path_52" data-name="Path 52" d="M837.013,78.036a5.629,5.629,0,0,1-4.275-1.777,6.275,6.275,0,0,1-1.681-4.491,6.393,6.393,0,0,1,1.633-4.479,5.872,5.872,0,0,1,8.345-.1,6.77,6.77,0,0,1,1.549,4.743l-.024.24h-9.247a3.834,3.834,0,0,0,1.153,2.786,3.723,3.723,0,0,0,5.956-1.057l1.969.961a5.867,5.867,0,0,1-2.2,2.33A6.079,6.079,0,0,1,837.013,78.036Zm-3.53-7.685h6.749a2.931,2.931,0,0,0-1-2.029,3.49,3.49,0,0,0-2.414-.8,3.2,3.2,0,0,0-2.149.769,3.67,3.67,0,0,0-1.189,2.066Z" transform="translate(-791.143 -60.072)" fill="#292929"/>
      <path id="Path_53" data-name="Path 53" d="M957.172,19.927v17.2h-2.21v-17.2Z" transform="translate(-901.335 -19.543)" fill="#292929"/>
      <path id="Path_54" data-name="Path 54" d="M993.59,71.768a6.226,6.226,0,0,1,1.705-4.491,5.812,5.812,0,0,1,4.346-1.777,5.736,5.736,0,0,1,4.323,1.777,6.7,6.7,0,0,1,0,8.982,5.734,5.734,0,0,1-4.323,1.777,5.811,5.811,0,0,1-4.346-1.778A6.222,6.222,0,0,1,993.59,71.768Zm2.209,0a4.309,4.309,0,0,0,1.1,3.074,3.773,3.773,0,0,0,5.476,0,4.8,4.8,0,0,0,0-6.124,3.722,3.722,0,0,0-5.476,0,4.278,4.278,0,0,0-1.105,3.05Z" transform="translate(-935.688 -60.072)" fill="#292929"/>
      <path id="Path_55" data-name="Path 55" d="M1126.977,78.03a5.074,5.074,0,0,1-2.365-.552,4.135,4.135,0,0,1-1.645-1.465h-.1l.1,1.633v5.187h-2.21V65.878h2.114v1.633h.1a4.139,4.139,0,0,1,1.645-1.465,5.222,5.222,0,0,1,6.3,1.273,6.785,6.785,0,0,1,0,8.886A5.056,5.056,0,0,1,1126.977,78.03Zm-.36-2.017a3.445,3.445,0,0,0,2.666-1.2,4.332,4.332,0,0,0,1.081-3.05,4.387,4.387,0,0,0-1.081-3.05,3.586,3.586,0,0,0-5.355,0,4.965,4.965,0,0,0,0,6.124,3.5,3.5,0,0,0,2.689,1.177Z" transform="translate(-1048.78 -60.066)" fill="#292929"/>
      <path id="Path_56" data-name="Path 56" d="M1247.14,78.036a5.628,5.628,0,0,1-4.275-1.777,6.277,6.277,0,0,1-1.681-4.491,6.393,6.393,0,0,1,1.633-4.479,5.872,5.872,0,0,1,8.346-.1,6.77,6.77,0,0,1,1.549,4.743l-.024.24h-9.246a3.832,3.832,0,0,0,1.153,2.786,3.723,3.723,0,0,0,5.956-1.057l1.969.961a5.871,5.871,0,0,1-2.2,2.33A6.078,6.078,0,0,1,1247.14,78.036Zm-3.531-7.685h6.749a2.931,2.931,0,0,0-1-2.029,3.49,3.49,0,0,0-2.413-.8,3.2,3.2,0,0,0-2.15.769A3.678,3.678,0,0,0,1243.61,70.351Z" transform="translate(-1155.88 -60.072)" fill="#292929"/>
      <path id="Path_57" data-name="Path 57" d="M1367.306,78.023h-2.21V66.255h2.114v1.921h.1a3.19,3.19,0,0,1,1.381-1.6,3.833,3.833,0,0,1,2.054-.66,4.14,4.14,0,0,1,1.633.288l-.672,2.137a3.677,3.677,0,0,0-1.3-.168,2.859,2.859,0,0,0-2.174,1.009,3.374,3.374,0,0,0-.925,2.354Z" transform="translate(-1266.078 -60.443)" fill="#292929"/>
      <path id="Path_58" data-name="Path 58" d="M1492.946,29.448a4.469,4.469,0,0,1-1.657,3.626,6.327,6.327,0,0,1-4.083,1.345,6.035,6.035,0,0,1-3.77-1.249,6.381,6.381,0,0,1-2.258-3.41l2.114-.865a5.464,5.464,0,0,0,.6,1.393,4.51,4.51,0,0,0,.9,1.069,4.071,4.071,0,0,0,1.141.7,3.492,3.492,0,0,0,1.321.252,3.8,3.8,0,0,0,2.474-.78,2.54,2.54,0,0,0,.961-2.077,2.482,2.482,0,0,0-.792-1.849,7.548,7.548,0,0,0-2.786-1.441q-2.066-.744-2.57-1.009a4.416,4.416,0,0,1-2.738-4.107,4.188,4.188,0,0,1,1.513-3.242,5.523,5.523,0,0,1,3.771-1.345,5.8,5.8,0,0,1,3.41,1.009,4.722,4.722,0,0,1,1.921,2.474l-2.065.865a3.056,3.056,0,0,0-1.141-1.6,3.691,3.691,0,0,0-4.263.084,2.1,2.1,0,0,0-.888,1.753,2.031,2.031,0,0,0,.7,1.537,11.983,11.983,0,0,0,3.338,1.537,8.513,8.513,0,0,1,3.734,2.174A4.641,4.641,0,0,1,1492.946,29.448Z" transform="translate(-1369.313 -16.455)" fill="#292929"/>
      <path id="Path_59" data-name="Path 59" d="M1602.705,51.981a3.359,3.359,0,0,1-2.39-.889,3.3,3.3,0,0,1-.972-2.474v-6.58h-2.065V40.021h2.065v-3.6h2.209v3.6h2.882v2.018h-2.882V47.9a2.149,2.149,0,0,0,.456,1.6,1.485,1.485,0,0,0,1.033.421,2.214,2.214,0,0,0,.516-.06,2.644,2.644,0,0,0,.468-.156l.7,1.969A5.939,5.939,0,0,1,1602.705,51.981Z" transform="translate(-1472.563 -34.21)" fill="#292929"/>
      <path id="Path_60" data-name="Path 60" d="M1692.113,80.737H1690V79.1h-.1a3.932,3.932,0,0,1-1.55,1.441,4.442,4.442,0,0,1-2.174.576,4.348,4.348,0,0,1-3.326-1.237,4.933,4.933,0,0,1-1.164-3.519v-7.4h2.209v7.253a2.6,2.6,0,0,0,2.906,2.882,2.763,2.763,0,0,0,2.21-1.069,3.873,3.873,0,0,0,.889-2.558V68.969h2.209Z" transform="translate(-1547.633 -63.157)" fill="#292929"/>
      <path id="Path_61" data-name="Path 61" d="M1800.129,37.507a5.171,5.171,0,0,1-3.962-1.825,6.861,6.861,0,0,1,0-8.886,5.174,5.174,0,0,1,3.962-1.825,5.075,5.075,0,0,1,2.365.552,4.14,4.14,0,0,1,1.645,1.465h.1l-.1-1.633V19.927h2.209v17.2h-2.114V35.489h-.1a4.139,4.139,0,0,1-1.645,1.465A5.075,5.075,0,0,1,1800.129,37.507Zm.36-2.017a3.383,3.383,0,0,0,2.666-1.177,4.365,4.365,0,0,0,1.081-3.074,4.386,4.386,0,0,0-1.081-3.05,3.4,3.4,0,0,0-2.666-1.2,3.446,3.446,0,0,0-2.666,1.2,4.388,4.388,0,0,0-1.081,3.05,4.333,4.333,0,0,0,1.081,3.05,3.445,3.445,0,0,0,2.665,1.2Z" transform="translate(-1647.989 -19.543)" fill="#292929"/>
      <path id="Path_62" data-name="Path 62" d="M1925.911,78.036a5.629,5.629,0,0,1-4.275-1.777,6.277,6.277,0,0,1-1.681-4.491,6.393,6.393,0,0,1,1.633-4.479,5.872,5.872,0,0,1,8.346-.1,6.771,6.771,0,0,1,1.549,4.743l-.024.24h-9.246a3.833,3.833,0,0,0,1.153,2.786,3.723,3.723,0,0,0,5.956-1.057l1.969.961a5.866,5.866,0,0,1-2.2,2.33A6.079,6.079,0,0,1,1925.911,78.036Zm-3.53-7.685h6.749a2.933,2.933,0,0,0-1-2.029,3.492,3.492,0,0,0-2.414-.8,3.2,3.2,0,0,0-2.15.769A3.68,3.68,0,0,0,1922.38,70.351Z" transform="translate(-1759.529 -60.072)" fill="#292929"/>
      <path id="Path_63" data-name="Path 63" d="M2043.859,65.884h2.115v1.633h.1a3.929,3.929,0,0,1,1.549-1.441,4.441,4.441,0,0,1,2.174-.576,4.348,4.348,0,0,1,3.325,1.237,4.936,4.936,0,0,1,1.165,3.518v7.4h-2.209V70.4a2.6,2.6,0,0,0-2.906-2.882,2.762,2.762,0,0,0-2.21,1.069,3.871,3.871,0,0,0-.888,2.558v6.508h-2.21Z" transform="translate(-1869.72 -60.072)" fill="#292929"/>
      <path id="Path_64" data-name="Path 64" d="M2156.056,51.981a3.358,3.358,0,0,1-2.39-.889,3.3,3.3,0,0,1-.973-2.474v-6.58h-2.066V40.021h2.066v-3.6h2.209v3.6h2.882v2.018H2154.9V47.9a2.149,2.149,0,0,0,.457,1.6,1.482,1.482,0,0,0,1.033.421,2.206,2.206,0,0,0,.515-.06,2.652,2.652,0,0,0,.469-.156l.7,1.969a5.936,5.936,0,0,1-2.016.312Z" transform="translate(-1964.672 -34.21)" fill="#292929"/>
      <path id="Path_65" data-name="Path 65" d="M2285.631,34.419a8.74,8.74,0,0,1-8.933-8.982,8.778,8.778,0,0,1,8.933-8.982,7.948,7.948,0,0,1,6.317,2.81l-1.585,1.537a5.871,5.871,0,0,0-4.732-2.233,6.488,6.488,0,0,0-4.779,1.921,6.693,6.693,0,0,0-1.9,4.947,6.693,6.693,0,0,0,1.9,4.947,6.485,6.485,0,0,0,4.779,1.921,6.727,6.727,0,0,0,5.211-2.522l1.61,1.561a8.343,8.343,0,0,1-3,2.27A9.157,9.157,0,0,1,2285.631,34.419Z" transform="translate(-2076.79 -16.455)" fill="#292929"/>
      <path id="Path_66" data-name="Path 66" d="M2440.575,19.927v17.2h-2.21v-17.2Z" transform="translate(-2220.565 -19.543)" fill="#292929"/>
      <path id="Path_67" data-name="Path 67" d="M2493.7,80.737h-2.113V79.1h-.1a3.931,3.931,0,0,1-1.55,1.441,4.44,4.44,0,0,1-2.174.576,4.348,4.348,0,0,1-3.326-1.237,4.93,4.93,0,0,1-1.164-3.519v-7.4h2.208v7.253A2.6,2.6,0,0,0,2488.4,79.1a2.763,2.763,0,0,0,2.209-1.069,3.871,3.871,0,0,0,.889-2.558V68.969h2.209Z" transform="translate(-2260.51 -63.157)" fill="#292929"/>
      <path id="Path_68" data-name="Path 68" d="M2609.493,37.507a5.074,5.074,0,0,1-2.365-.552,4.128,4.128,0,0,1-1.645-1.465h-.1v1.633h-2.114v-17.2h2.209v5.428l-.1,1.633h.1a4.142,4.142,0,0,1,1.646-1.465,5.222,5.222,0,0,1,6.3,1.273,6.786,6.786,0,0,1,0,8.886A5.053,5.053,0,0,1,2609.493,37.507Zm-.36-2.017a3.444,3.444,0,0,0,2.666-1.2,4.332,4.332,0,0,0,1.08-3.05,4.388,4.388,0,0,0-1.08-3.05,3.586,3.586,0,0,0-5.356,0,4.446,4.446,0,0,0-1.056,3.05,4.482,4.482,0,0,0,1.056,3.074,3.5,3.5,0,0,0,2.69,1.177Z" transform="translate(-2367.222 -19.543)" fill="#292929"/>
      <path id="Path_69" data-name="Path 69" d="M2731.532,74.382a3.189,3.189,0,0,1-1.344,2.594,5.316,5.316,0,0,1-3.387,1.057,5.373,5.373,0,0,1-3.122-.925,5.1,5.1,0,0,1-1.921-2.438l1.97-.841a3.657,3.657,0,0,0,1.261,1.645,3.064,3.064,0,0,0,1.813.588,3.2,3.2,0,0,0,1.765-.456,1.294,1.294,0,0,0,.708-1.081q0-1.129-1.729-1.657l-2.017-.5q-3.434-.865-3.435-3.314a3.062,3.062,0,0,1,1.31-2.582,6,6,0,0,1,6.173-.228,4.049,4.049,0,0,1,1.765,1.993l-1.969.817a2.483,2.483,0,0,0-1.094-1.165,3.427,3.427,0,0,0-1.693-.421,2.839,2.839,0,0,0-1.549.432,1.244,1.244,0,0,0-.685,1.057q0,1.009,1.9,1.441l1.776.456Q2731.533,71.716,2731.532,74.382Z" transform="translate(-2472.594 -60.068)" fill="#292929"/>
    </g>
  </g>
</svg>
