<svg xmlns="http://www.w3.org/2000/svg" xmlns:xlink="http://www.w3.org/1999/xlink" width="46" height="40" viewBox="0 0 46 40">
  <defs>
    <clipPath id="clip-path">
      <rect id="Rectangle_18" data-name="Rectangle 18" width="46" height="40" fill="#4286f5" stroke="#707070" stroke-width="1"/>
    </clipPath>
  </defs>
  <g id="Insta_icon" data-name="Insta icon" clip-path="url(#clip-path)">
    <g id="instagram" transform="translate(2.032)">
      <path id="Path_6" data-name="Path 6" d="M35.549,0H6.1A6,6,0,0,0,0,5.877V34.246a6,6,0,0,0,6.1,5.877H35.549a6,6,0,0,0,6.1-5.877V5.877A6,6,0,0,0,35.549,0ZM20.906,30.563A10.8,10.8,0,0,1,9.924,19.983,10.8,10.8,0,0,1,20.906,9.4,10.8,10.8,0,0,1,31.888,19.983,10.8,10.8,0,0,1,20.906,30.563Zm12.2-18.808a3.6,3.6,0,0,1-3.661-3.526,3.663,3.663,0,0,1,7.321,0A3.6,3.6,0,0,1,33.109,11.755Zm0,0" fill="#4286f5"/>
      <path id="Path_7" data-name="Path 7" d="M32.611,7.207a1.176,1.176,0,1,0,1.22,1.175A1.2,1.2,0,0,0,32.611,7.207Zm0,0" transform="translate(0.498 -0.154)" fill="#4286f5"/>
      <path id="Path_8" data-name="Path 8" d="M20.713,12.012a8.4,8.4,0,0,0-8.542,8.228,8.4,8.4,0,0,0,8.542,8.228,8.4,8.4,0,0,0,8.542-8.228A8.4,8.4,0,0,0,20.713,12.012Zm0,0" transform="translate(0.193 -0.257)" fill="#4286f5"/>
    </g>
  </g>
</svg>
