<?xml version="1.0" encoding="UTF-8" standalone="no"?>
<svg
   xmlns:dc="http://purl.org/dc/elements/1.1/"
   xmlns:cc="http://creativecommons.org/ns#"
   xmlns:rdf="http://www.w3.org/1999/02/22-rdf-syntax-ns#"
   xmlns:svg="http://www.w3.org/2000/svg"
   xmlns="http://www.w3.org/2000/svg"
   id="svg88"
   version="1.1"
   viewBox="0 0 360 673.07202"
   height="673.07202"
   width="360">
  <metadata
     id="metadata92">
    <rdf:RDF>
      <cc:Work
         rdf:about="">
        <dc:format>image/svg+xml</dc:format>
        <dc:type
           rdf:resource="http://purl.org/dc/dcmitype/StillImage" />
        <dc:title></dc:title>
      </cc:Work>
    </rdf:RDF>
  </metadata>
  <defs
     id="defs5">
    <clipPath
       id="clip-Mobile_View_hero_image">
      <rect
         y="0"
         x="0"
         id="rect2"
         height="740"
         width="360" />
    </clipPath>
  </defs>
  <rect
     width="360"
     height="678.07202"
     id="rect7"
     x="0"
     y="-5.0000014"
     style="fill:#ffffff;stroke-width:0.95724267" />
  <text
     y="192.07204"
     x="122"
     id="_1"
     data-name="1"
     font-size="43"
     style="font-size:43px;font-family:ProductSans-Regular, 'Product Sans';fill:#d3e3f9">
    <tspan
       x="113.744"
       y="192.07204"
       id="tspan9">1</tspan>
  </text>
  <text
     y="120.07204"
     x="269"
     id="_0"
     data-name="0"
     font-size="26"
     style="font-size:26px;font-family:ProductSans-Regular, 'Product Sans';fill:#fde293">
    <tspan
       x="260.70599"
       y="120.07204"
       id="tspan12">0</tspan>
  </text>
  <text
     y="125.07204"
     x="43"
     id="_1-2"
     data-name="1"
     font-size="43"
     style="font-size:43px;font-family:ProductSans-Regular, 'Product Sans';fill:#a8dab5">
    <tspan
       x="34.743999"
       y="125.07204"
       id="tspan15">1</tspan>
  </text>
  <g
     id="Group_11"
     data-name="Group 11"
     transform="translate(-755,-95.664968)">
    <rect
       id="Rectangle_25"
       data-name="Rectangle 25"
       width="26"
       height="70"
       transform="translate(787,662.737)"
       x="0"
       y="0"
       style="fill:#fad2cf" />
    <g
       id="HealthCare"
       transform="translate(802.304,677.59)">
      <g
         id="Group_8"
         data-name="Group 8">
        <g
           id="Group_7"
           data-name="Group 7">
          <path
             id="Path_89"
             data-name="Path 89"
             d="m 42.543,34.231 a 4.969,4.969 0 0 0 -4.208,-4.208 v -1.291 a 6.266,6.266 0 0 0 -6.034,-6.46 6.29,6.29 0 0 0 -6.034,6.267 h 0.041 l -0.041,0.007 v 13.99 c 0,4.472 -3.344,8.1 -7.454,8.1 -4.11,0 -7.454,-3.637 -7.454,-8.1 v -1.212 c 1.029,0 2.13,-0.746 2.13,-2.84 V 36.7 A 10.067,10.067 0 0 0 21.3,27.187 v -1.48 h -1.42 l -0.03,-9.239 a 3.553,3.553 0 0 0 -2.92,-3.475 2.118,2.118 0 1 0 -0.048,1.447 2.13,2.13 0 0 1 1.547,2.032 l 0.032,9.235 h -1.42 v 1.5 a 5.645,5.645 0 0 1 -4.086,5.3 6.455,6.455 0 0 1 -3.9,0 5.642,5.642 0 0 1 -4.078,-5.3 v -1.5 H 2.84 V 16.478 A 2.13,2.13 0 0 1 4.416,14.431 2.14,2.14 0 1 0 4.372,12.989 3.55,3.55 0 0 0 1.42,16.478 v 9.229 H 0 v 1.477 A 10.067,10.067 0 0 0 7.809,36.7 v 1.785 c 0,2.093 1.1,2.84 2.13,2.84 v 1.212 c 0,5.253 3.98,9.524 8.874,9.524 4.894,0 8.874,-4.276 8.874,-9.524 V 28.58 a 4.858,4.858 0 0 1 4.613,-4.886 4.846,4.846 0 0 1 4.614,5.04 v 1.288 a 4.969,4.969 0 1 0 5.628,4.208 z M 14.908,14.348 a 0.71,0.71 0 1 1 0.71,-0.71 0.71,0.71 0 0 1 -0.71,0.71 z m -8.519,-1.42 a 0.71,0.71 0 1 1 -0.71,0.71 0.71,0.71 0 0 1 0.71,-0.71 z M 1.42,27.183 v -0.057 h 2.13 v 0.081 a 7.054,7.054 0 0 0 5.067,6.647 7.9,7.9 0 0 0 4.769,0 7.055,7.055 0 0 0 5.071,-6.647 v -0.081 h 1.42 v 0.057 a 8.7,8.7 0 0 1 -7.241,8.265 10.126,10.126 0 0 1 -3,0.147 A 9.273,9.273 0 0 1 8.656,35.447 8.7,8.7 0 0 1 1.42,27.183 Z M 9.938,39.9 c -0.639,0 -0.71,-0.994 -0.71,-1.42 v -1.502 c 0.057,0.007 0.115,0.01 0.173,0.016 0.058,0.006 0.142,0.013 0.213,0.02 0.336,0.03 0.674,0.05 1.016,0.05 h 0.035 c 0.341,0 0.679,-0.021 1.012,-0.05 0.071,-0.006 0.146,-0.012 0.219,-0.02 0.056,-0.006 0.114,-0.009 0.17,-0.016 v 1.506 c 0,0.426 -0.071,1.42 -0.71,1.42 z m 27.686,-1.42 a 3.549,3.549 0 1 1 3.549,-3.549 3.549,3.549 0 0 1 -3.549,3.554 z"
             transform="translate(0,-11.508)"
             style="fill:#ea4235" />
        </g>
      </g>
      <g
         id="Group_10"
         data-name="Group 10"
         transform="translate(35.495,21.297)">
        <g
           id="Group_9"
           data-name="Group 9">
          <path
             id="Path_90"
             data-name="Path 90"
             d="m 402.13,251.515 a 2.13,2.13 0 1 0 2.13,2.13 2.13,2.13 0 0 0 -2.13,-2.13 z m 0,2.84 a 0.71,0.71 0 1 1 0.71,-0.71 0.71,0.71 0 0 1 -0.71,0.71 z"
             transform="translate(-400,-251.515)"
             style="fill:#ea4235" />
        </g>
      </g>
    </g>
  </g>
  <g
     id="Group_13"
     data-name="Group 13"
     transform="translate(-13,-140.92797)">
    <rect
       id="Rectangle_25-2"
       data-name="Rectangle 25"
       width="23"
       height="62"
       transform="translate(97,168)"
       x="0"
       y="0"
       style="fill:#d3e3f9" />
    <g
       id="Education"
       transform="translate(106.993,183.154)">
      <g
         id="Group_12"
         data-name="Group 12">
        <path
           id="Path_91"
           data-name="Path 91"
           d="M 37.29,49.758 21.914,42.247 a 6.3,6.3 0 0 0 -4.9,0 L 1.281,49.758 A 1.9,1.9 0 0 0 0,51.437 c 0,0.4 0.177,1.1 1.281,1.679 l 1.281,0.619 V 60.8 a 2.165,2.165 0 0 0 -1.37,1.988 2.193,2.193 0 0 0 1.326,1.992 L 0.53,71.1 H 6.1 L 4.109,64.78 A 2.141,2.141 0 0 0 4.065,60.8 v -6.314 l 2.342,1.149 v 9.19 a 0.713,0.713 0 0 0 0.133,0.4 16.046,16.046 0 0 0 12.723,5.875 15.955,15.955 0 0 0 12.68,-5.876 0.713,0.713 0 0 0 0.133,-0.4 v -9.146 l 5.213,-2.563 A 1.9,1.9 0 0 0 38.57,51.436 1.975,1.975 0 0 0 37.29,49.758 Z M 30.662,64.6 A 14.774,14.774 0 0 1 19.262,69.725 14.774,14.774 0 0 1 7.864,64.6 v -8.35 l 9.146,4.374 a 5.958,5.958 0 0 0 2.43,0.486 5.38,5.38 0 0 0 2.474,-0.53 l 8.748,-4.28 z m 6.009,-12.724 -5.3,2.607 a 0.508,0.508 0 0 0 -0.486,0.265 L 21.3,59.39 a 4.905,4.905 0 0 1 -3.711,0 L 5.789,53.735 19.353,52.144 A 0.68822035,0.68822035 0 1 0 19.22,50.774 L 3.49,52.63 1.9,51.879 a 0.891,0.891 0 0 1 -0.486,-0.4 c 0,-0.044 0.088,-0.221 0.486,-0.4 l 15.729,-7.555 a 4.564,4.564 0 0 1 1.811,-0.353 4.478,4.478 0 0 1 1.856,0.353 l 15.375,7.511 c 0.4,0.177 0.486,0.353 0.486,0.442 a 1.215,1.215 0 0 1 -0.486,0.402 z"
           transform="translate(0,-41.75)"
           style="fill:#4286f5" />
      </g>
    </g>
  </g>
  <text
     y="196.07204"
     x="314"
     id="_1-3"
     data-name="1"
     font-size="54"
     style="font-size:54px;font-family:ProductSans-Regular, 'Product Sans';fill:#a8dab5">
    <tspan
       x="303.63199"
       y="196.07204"
       id="tspan48">1</tspan>
  </text>
  <text
     y="103.07204"
     x="189"
     id="_0-2"
     data-name="0"
     font-size="42"
     style="font-size:42px;font-family:ProductSans-Regular, 'Product Sans';fill:#fad2cf">
    <tspan
       x="175.60201"
       y="103.07204"
       id="tspan51">0</tspan>
  </text>
  <text
     y="180.07204"
     x="227"
     id="_0-3"
     data-name="0"
     font-size="32"
     style="font-size:32px;font-family:ProductSans-Regular, 'Product Sans';fill:#4286f5">
    <tspan
       x="216.79199"
       y="180.07204"
       id="tspan54">0</tspan>
  </text>
  <g
     id="Group_14"
     data-name="Group 14"
     transform="translate(-1035.552,-275.92797)">
    <rect
       id="Rectangle_25-3"
       data-name="Rectangle 25"
       width="21"
       height="54"
       transform="translate(1291.552,289)"
       x="0"
       y="0"
       style="fill:#a8dab5" />
    <path
       id="Environment"
       d="m 31.619,3.7 a 12.79,12.79 0 0 0 -1.108,-2.522 0.475,0.475 0 0 0 -0.5,-0.212 12.787,12.787 0 0 0 -2.58,0.963 7.41,7.41 0 0 0 -3.7,3.527 6.833,6.833 0 0 0 -0.213,4.147 13.205,13.205 0 0 0 -2.483,-2.161 19.234,19.234 0 0 0 -2.158,-3.308 0.466,0.466 0 0 0 -0.723,0.587 18.644,18.644 0 0 1 1.718,2.527 L 15.63,6.427 11.6,0.93 a 6.569,6.569 0 0 1 1.175,0.12 8.042,8.042 0 0 1 3.638,1.875 0.466,0.466 0 0 0 0.6,-0.709 8.958,8.958 0 0 0 -4.059,-2.08 10.7,10.7 0 0 0 -7.2,1.586 18.591,18.591 0 0 0 -3.254,2.325 0.493,0.493 0 0 0 -0.055,0.639 19,19 0 0 0 2.089,3.279 14.561,14.561 0 0 0 2.2,2.263 Q 6.41,10.5 6.1,10.8 A 10.765,10.765 0 0 0 9.583,28.47 0.466,0.466 0 0 0 9.933,27.607 9.831,9.831 0 0 1 7.922,26.5 5.247,5.247 0 0 0 7.131,22.827 C 6.983,22.597 7.425,21.694 7.688,21.155 A 8.73,8.73 0 0 0 8.372,19.483 1.274,1.274 0 0 0 7.919,18.083 3.437,3.437 0 0 0 6.812,17.6 2.382,2.382 0 0 1 6.204,17.362 6.208,6.208 0 0 1 5.416,16.079 7.961,7.961 0 0 0 4.565,14.679 9.9,9.9 0 0 1 7.5,10.8 a 8.144,8.144 0 0 0 3.924,1.458 c -1.646,1.275 -2.178,2.9 -1.417,4.468 0.889,1.826 2.718,1.535 4.331,1.278 0.279,-0.045 0.568,-0.091 0.845,-0.125 0.1,-0.013 0.135,0.015 0.156,0.034 0.353,0.314 0.343,1.815 0.335,2.912 -0.01,1.516 -0.02,2.948 0.545,3.684 a 1.422,1.422 0 0 0 1.169,0.567 2.347,2.347 0 0 0 0.919,-0.208 c 1.4,-0.6 2.864,-2.412 2.642,-3.844 a 5.055,5.055 0 0 1 -0.02,-2.746 4.923,4.923 0 0 1 2.3,-1.918 9.833,9.833 0 0 1 -10.686,11.9 0.466,0.466 0 0 0 -0.1,0.926 10.824,10.824 0 0 0 8.716,-3 A 10.758,10.758 0 0 0 19.5,9.476 c 0.615,-0.439 1.073,-0.818 1.328,-1.038 a 12.364,12.364 0 1 1 -19.394,8.041 0.466,0.466 0 0 0 -0.919,-0.152 13.291,13.291 0 0 0 10.949,15.28 13.475,13.475 0 0 0 2.194,0.181 13.3,13.3 0 0 0 12.163,-18.6 13.411,13.411 0 0 0 2.147,-0.846 7.409,7.409 0 0 0 3.7,-3.527 7.405,7.405 0 0 0 -0.048,-5.11 z M 4.592,16.509 a 5.8,5.8 0 0 0 1.015,1.563 2.671,2.671 0 0 0 0.932,0.414 c 0.91,0.28 1.016,0.417 0.929,0.777 a 8.128,8.128 0 0 1 -0.615,1.482 c -0.481,0.984 -0.935,1.913 -0.5,2.584 a 4.429,4.429 0 0 1 0.7,2.471 9.925,9.925 0 0 1 -2.87,-10.042 c 0.137,0.235 0.281,0.508 0.41,0.751 z M 27.122,7.358 25.8,4.151 A 8.715,8.715 0 0 1 27.827,2.776 12.43,12.43 0 0 1 29.3,2.157 Z m 3.034,-4.84 a 12.49,12.49 0 0 1 0.582,1.489 8.9,8.9 0 0 1 0.422,2.245 l -3.1,1.28 z m -5.568,3.305 a 4.435,4.435 0 0 1 0.52,-0.9 l 1.507,3.65 -1.353,3.227 a 12.364,12.364 0 0 1 -0.6,-1.533 6.662,6.662 0 0 1 -0.071,-4.446 z m 2.983,5.677 a 12.371,12.371 0 0 1 -1.425,0.6 l 1.4,-3.354 3.574,-1.471 A 4.492,4.492 0 0 1 30.809,8.452 6.661,6.661 0 0 1 27.571,11.5 Z M 10.78,11.234 c -0.165,-0.032 -0.327,-0.072 -0.487,-0.116 l 5.154,-3.778 4.244,0.827 c -1.546,1.218 -5.308,3.773 -8.91,3.067 z M 6.07,8.321 A 18.129,18.129 0 0 1 3.7,5.05 L 9.1,6.1 Z M 7.024,2.108 9.283,5.19 3.848,4.13 A 18.357,18.357 0 0 1 7.024,2.108 Z M 10.63,5.453 7.891,1.716 a 10.474,10.474 0 0 1 2.6,-0.72 L 14.28,6.165 Z M 10.34,6.345 14.2,7.1 9.246,10.731 A 9.634,9.634 0 0 1 6.734,8.989 Z m 12.636,9.093 c -1.679,0.894 -2.5,1.6 -2.891,2.454 a 5.667,5.667 0 0 0 -0.053,3.275 3.456,3.456 0 0 1 -2.088,2.845 c -0.464,0.2 -0.8,0.175 -0.984,-0.07 -0.37,-0.482 -0.36,-1.939 -0.352,-3.11 0.011,-1.62 0.021,-3.019 -0.648,-3.614 a 1.1,1.1 0 0 0 -0.89,-0.262 c -0.293,0.036 -0.59,0.084 -0.877,0.13 -1.712,0.273 -2.789,0.382 -3.347,-0.765 -0.9,-1.858 0.926,-3.234 1.755,-3.74 a 2.95,2.95 0 0 0 0.471,-0.359 13.539,13.539 0 0 0 5.583,-2.175 9.885,9.885 0 0 1 4.32,5.392 z m 0,0"
       transform="translate(1302.388,300.106)"
       style="fill:#109d58" />
  </g>
  <g
     id="Group_32"
     data-name="Group 32"
     transform="translate(-4492,25.072032)">
    <text
       id="_1-4"
       data-name="1"
       transform="translate(4658,450)"
       font-size="33"
       style="font-size:33px;font-family:ProductSans-Regular, 'Product Sans';fill:#fde293">
      <tspan
         x="-6.336"
         y="0"
         id="tspan60">1</tspan>
    </text>
    <text
       id="_0-4"
       data-name="0"
       transform="translate(4709,505)"
       font-size="32"
       style="font-size:32px;font-family:ProductSans-Regular, 'Product Sans';fill:#ea4235">
      <tspan
         x="-10.208"
         y="0"
         id="tspan63">0</tspan>
    </text>
    <text
       id="_0-5"
       data-name="0"
       transform="translate(4641,587)"
       font-size="32"
       style="font-size:32px;font-family:ProductSans-Regular, 'Product Sans';fill:#1ce8b5">
      <tspan
         x="-10.208"
         y="0"
         id="tspan66">0</tspan>
    </text>
  </g>
  <text
     y="541.07202"
     x="124"
     id="_1-5"
     data-name="1"
     font-size="46"
     style="font-size:46px;font-family:ProductSans-Regular, 'Product Sans';fill:#ff6c00">
    <tspan
       x="115.168"
       y="541.07202"
       id="tspan70">1</tspan>
  </text>
  <text
     y="483.07202"
     x="58"
     id="_1-6"
     data-name="1"
     font-size="56"
     style="font-size:56px;font-family:ProductSans-Regular, 'Product Sans';fill:#4286f5">
    <tspan
       x="47.248001"
       y="483.07202"
       id="tspan73">1</tspan>
  </text>
  <g
     id="Group_15"
     data-name="Group 15"
     transform="translate(-1445,-79.927968)">
    <rect
       id="Rectangle_25-4"
       data-name="Rectangle 25"
       width="22"
       height="59"
       transform="translate(1682,641)"
       x="0"
       y="0"
       style="fill:#fef7e0" />
    <g
       id="surface1"
       transform="translate(1688.644,662.995)">
      <path
         id="Path_92"
         data-name="Path 92"
         d="m 240,86.891 h 3.214 V 88.5 H 240 Z m 0,0"
         transform="translate(-213.909,-77.2)"
         style="fill:#fabb04" />
      <path
         id="Path_93"
         data-name="Path 93"
         d="M 60.776,6.827 53.8,5.8 A 34.938,34.938 0 0 0 49.844,3.65 33.874,33.874 0 0 0 35.523,0.492 H 34.31 A 34.242,34.242 0 0 0 17.631,4.855 L 14.108,6.826 A 23.817,23.817 0 0 0 2.357,10.093 4.835,4.835 0 0 0 0,14.26 v 6.259 a 1.041,1.041 0 0 0 1.028,1.054 h 3.45 a 6.105,6.105 0 0 0 7.829,3.862 6.224,6.224 0 0 0 3.765,-3.862 h 27.456 a 6.105,6.105 0 0 0 7.829,3.862 6.225,6.225 0 0 0 3.765,-3.862 h 0.369 a 1.01,1.01 0 0 0 0.382,-0.075 l 3.328,-1.37 a 3.986,3.986 0 0 0 2.455,-3.72 V 7.87 A 1.046,1.046 0 0 0 60.776,6.827 Z M 14.3,20.308 a 4.114,4.114 0 0 1 -4.85,3.286 4.214,4.214 0 0 1 -3.2,-4.975 4.115,4.115 0 0 1 4.85,-3.286 4.191,4.191 0 0 1 3.287,4.132 4.322,4.322 0 0 1 -0.087,0.843 z M 32.881,19.465 H 16.442 A 6.246,6.246 0 0 0 10.276,13.141 6.247,6.247 0 0 0 4.11,19.464 H 2.055 v -5.2 a 2.709,2.709 0 0 1 1.323,-2.337 21.79,21.79 0 0 1 11.009,-3 h 18.5 z m 0,-12.648 H 18.417 l 0.2,-0.111 A 32.232,32.232 0 0 1 32.884,2.646 Z M 34.939,2.6 h 0.582 a 31.811,31.811 0 0 1 12.091,2.376 l -1.794,1.84 H 34.939 Z m 18.414,17.708 a 4.115,4.115 0 0 1 -4.853,3.286 4.215,4.215 0 0 1 -3.2,-4.975 4.115,4.115 0 0 1 4.85,-3.287 4.191,4.191 0 0 1 3.287,4.132 4.322,4.322 0 0 1 -0.084,0.844 z M 59.6,9.978 h -3.08 v 2.108 h 3.08 v 4.321 a 1.887,1.887 0 0 1 -1.163,1.761 l -2.948,1.214 c 0,-0.1 -0.012,-0.193 -0.018,-0.29 -0.006,-0.097 -0.008,-0.211 -0.018,-0.316 -0.01,-0.105 -0.031,-0.211 -0.047,-0.316 -0.016,-0.105 -0.029,-0.211 -0.049,-0.307 -0.02,-0.096 -0.051,-0.2 -0.077,-0.3 -0.026,-0.1 -0.047,-0.2 -0.078,-0.3 -0.031,-0.1 -0.068,-0.192 -0.1,-0.288 -0.032,-0.096 -0.067,-0.195 -0.1,-0.29 -0.033,-0.095 -0.084,-0.181 -0.127,-0.271 -0.043,-0.09 -0.085,-0.188 -0.133,-0.278 -0.048,-0.09 -0.1,-0.168 -0.149,-0.252 -0.049,-0.084 -0.1,-0.181 -0.161,-0.267 -0.061,-0.086 -0.113,-0.155 -0.17,-0.233 -0.057,-0.078 -0.12,-0.17 -0.186,-0.251 C 54.01,15.342 53.949,15.279 53.885,15.212 53.821,15.145 53.75,15.056 53.68,14.983 53.61,14.91 53.539,14.851 53.468,14.783 53.397,14.715 53.321,14.641 53.243,14.572 53.165,14.503 53.086,14.451 53.008,14.391 52.93,14.331 52.852,14.267 52.77,14.21 52.688,14.153 52.595,14.105 52.507,14.046 52.419,13.987 52.346,13.94 52.263,13.895 52.18,13.85 52.076,13.802 51.982,13.756 51.888,13.71 51.814,13.668 51.726,13.631 51.638,13.594 51.52,13.553 51.418,13.515 51.316,13.477 51.248,13.447 51.161,13.415 51.044,13.378 50.924,13.352 50.804,13.321 50.726,13.302 50.651,13.277 50.572,13.26 50.446,13.233 50.316,13.219 50.188,13.2 50.112,13.19 50.039,13.173 49.963,13.165 A 6.091,6.091 0 0 0 49.336,13.132 6.253,6.253 0 0 0 43.17,19.456 H 34.94 V 8.924 h 11.3 a 1.013,1.013 0 0 0 0.726,-0.309 l 2.665,-2.733 a 32.708,32.708 0 0 1 3.261,1.828 1.015,1.015 0 0 0 0.4,0.15 l 6.312,0.924 z m 0,0"
         transform="translate(0,-0.492)"
         style="fill:#fabb04" />
    </g>
  </g>
  <text
     y="250.07204"
     x="43"
     id="_0-6"
     data-name="0"
     font-size="56"
     style="font-size:56px;font-family:ProductSans-Regular, 'Product Sans';fill:#1ce8b5">
    <tspan
       x="25.136"
       y="250.07204"
       id="tspan81">0</tspan>
  </text>
  <text
     y="508.07202"
     x="290"
     id="_0-7"
     data-name="0"
     font-size="47"
     style="font-size:47px;font-family:ProductSans-Regular, 'Product Sans';fill:#fad2cf">
    <tspan
       x="275.00699"
       y="508.07202"
       id="tspan84">0</tspan>
  </text>
</svg>
