<svg xmlns="http://www.w3.org/2000/svg" width="326" height="319.076" viewBox="0 0 326 319.076">
  <g id="Aboutt_Us_IMge_Mobile_View" data-name="Aboutt Us IMge Mobile View" transform="translate(-311 -1335.9)">
    <path id="Path_116" data-name="Path 116" d="M1.892-16.158A16.206,16.206,0,0,1,4.847-26.167a9.105,9.105,0,0,1,7.6-3.933,9.079,9.079,0,0,1,7.6,3.972A16.14,16.14,0,0,1,23-16.158,16.417,16.417,0,0,1,20.045-6.149a9.105,9.105,0,0,1-7.6,3.933,9.105,9.105,0,0,1-7.6-3.933A16.417,16.417,0,0,1,1.892-16.158Zm17.5,0a13.646,13.646,0,0,0-1.919-7.555,5.723,5.723,0,0,0-5.028-2.96,5.723,5.723,0,0,0-5.028,2.96A13.646,13.646,0,0,0,5.5-16.158,13.844,13.844,0,0,0,7.418-8.563a5.737,5.737,0,0,0,5.028,2.921A5.723,5.723,0,0,0,17.473-8.6,13.766,13.766,0,0,0,19.392-16.158ZM35.818-29.477V-2.839H32.287v-22.2l-5.1,2.259L25.84-25.816l7.714-3.661Zm4.912,13.319a16.206,16.206,0,0,1,2.955-10.009,9.105,9.105,0,0,1,7.6-3.933,9.079,9.079,0,0,1,7.6,3.972,16.14,16.14,0,0,1,2.955,9.97A16.417,16.417,0,0,1,58.883-6.149a9.105,9.105,0,0,1-7.6,3.933,9.105,9.105,0,0,1-7.6-3.933A16.417,16.417,0,0,1,40.731-16.158Zm17.5,0a13.646,13.646,0,0,0-1.919-7.555,5.723,5.723,0,0,0-5.028-2.96,5.723,5.723,0,0,0-5.028,2.96,13.646,13.646,0,0,0-1.919,7.555,13.844,13.844,0,0,0,1.919,7.594,5.737,5.737,0,0,0,5.028,2.921A5.723,5.723,0,0,0,56.312-8.6,13.766,13.766,0,0,0,58.231-16.158ZM74.657-29.477V-2.839H71.126v-22.2l-5.1,2.259-1.343-3.038,7.714-3.661Zm4.912,13.319a16.206,16.206,0,0,1,2.955-10.009,9.105,9.105,0,0,1,7.6-3.933,9.079,9.079,0,0,1,7.6,3.972,16.14,16.14,0,0,1,2.955,9.97A16.417,16.417,0,0,1,97.722-6.149a9.105,9.105,0,0,1-7.6,3.933,9.105,9.105,0,0,1-7.6-3.933A16.417,16.417,0,0,1,79.569-16.158Zm17.5,0a13.646,13.646,0,0,0-1.919-7.555,5.723,5.723,0,0,0-5.028-2.96,5.723,5.723,0,0,0-5.028,2.96,13.646,13.646,0,0,0-1.919,7.555A13.844,13.844,0,0,0,85.1-8.563a5.737,5.737,0,0,0,5.028,2.921A5.723,5.723,0,0,0,95.151-8.6,13.766,13.766,0,0,0,97.07-16.158Z" transform="translate(309.108 1366)" fill="#fad2cf"/>
    <path id="Path_122" data-name="Path 122" d="M1.892-14.827A17.571,17.571,0,0,1,5.177-25.791,10.168,10.168,0,0,1,13.624-30.1a10.137,10.137,0,0,1,8.447,4.351,17.5,17.5,0,0,1,3.285,10.921A17.8,17.8,0,0,1,22.071-3.863,10.168,10.168,0,0,1,13.624.445,10.168,10.168,0,0,1,5.177-3.863,17.8,17.8,0,0,1,1.892-14.827Zm19.453,0A14.78,14.78,0,0,0,19.212-23.1a6.379,6.379,0,0,0-5.589-3.242A6.379,6.379,0,0,0,8.035-23.1,14.78,14.78,0,0,0,5.9-14.827,15,15,0,0,0,8.035-6.508a6.4,6.4,0,0,0,5.589,3.2,6.379,6.379,0,0,0,5.589-3.242A14.911,14.911,0,0,0,21.345-14.827Zm7.764,0a17.571,17.571,0,0,1,3.285-10.964A10.168,10.168,0,0,1,40.842-30.1a10.137,10.137,0,0,1,8.447,4.351,17.5,17.5,0,0,1,3.285,10.921A17.8,17.8,0,0,1,49.288-3.863,10.168,10.168,0,0,1,40.842.445a10.168,10.168,0,0,1-8.447-4.309A17.8,17.8,0,0,1,29.11-14.827Zm19.453,0A14.78,14.78,0,0,0,46.43-23.1a6.379,6.379,0,0,0-5.589-3.242A6.379,6.379,0,0,0,35.253-23.1a14.781,14.781,0,0,0-2.133,8.276,15,15,0,0,0,2.133,8.319,6.4,6.4,0,0,0,5.589,3.2A6.379,6.379,0,0,0,46.43-6.551,14.911,14.911,0,0,0,48.563-14.827Zm18.259-14.59V-.237H62.9V-24.554L57.223-22.08,55.73-25.407l8.575-4.01Zm16.382,0V-.237H79.279V-24.554L73.605-22.08l-1.493-3.328,8.575-4.01Zm16.382,0V-.237H95.661V-24.554L89.987-22.08l-1.493-3.328,8.575-4.01Z" transform="translate(310.199 1615.688)" fill="#d3e3f9"/>
    <path id="Path_117" data-name="Path 117" d="M12.614-29.43V-.77H8.759V-24.653l-5.573,2.43L1.72-25.491l8.422-3.939Zm16.089,0V-.77H24.848V-24.653l-5.573,2.43-1.466-3.268,8.422-3.939ZM34.066-15.1a17.257,17.257,0,0,1,3.226-10.768,9.986,9.986,0,0,1,8.3-4.232,9.956,9.956,0,0,1,8.3,4.274A17.187,17.187,0,0,1,57.111-15.1,17.481,17.481,0,0,1,53.885-4.332,9.986,9.986,0,0,1,45.589-.1a9.986,9.986,0,0,1-8.3-4.232A17.481,17.481,0,0,1,34.066-15.1Zm19.106,0a14.517,14.517,0,0,0-2.095-8.128,6.265,6.265,0,0,0-5.489-3.184A6.265,6.265,0,0,0,40.1-23.229,14.517,14.517,0,0,0,38-15.1,14.727,14.727,0,0,0,40.1-6.93a6.281,6.281,0,0,0,5.489,3.142,6.265,6.265,0,0,0,5.489-3.184A14.644,14.644,0,0,0,53.172-15.1ZM71.105-29.43V-.77H67.251V-24.653l-5.573,2.43-1.466-3.268,8.422-3.939ZM76.469-15.1a17.257,17.257,0,0,1,3.226-10.768,9.986,9.986,0,0,1,8.3-4.232,9.956,9.956,0,0,1,8.3,4.274A17.187,17.187,0,0,1,99.513-15.1,17.481,17.481,0,0,1,96.287-4.332,9.986,9.986,0,0,1,87.991-.1a9.986,9.986,0,0,1-8.3-4.232A17.481,17.481,0,0,1,76.469-15.1Zm19.106,0a14.517,14.517,0,0,0-2.095-8.128,6.265,6.265,0,0,0-5.489-3.184A6.265,6.265,0,0,0,82.5-23.229,14.516,14.516,0,0,0,80.407-15.1,14.727,14.727,0,0,0,82.5-6.93a6.281,6.281,0,0,0,5.489,3.142A6.265,6.265,0,0,0,93.48-6.972,14.644,14.644,0,0,0,95.575-15.1Z" transform="translate(310.272 1407.519)" fill="#4286f5"/>
    <path id="Path_118" data-name="Path 118" d="M12.852-29.415V-.128H8.913V-24.534L3.219-22.05l-1.5-3.34,8.606-4.025Zm5.481,14.643a17.635,17.635,0,0,1,3.3-11A10.205,10.205,0,0,1,30.107-30.1a10.174,10.174,0,0,1,8.478,4.367,17.563,17.563,0,0,1,3.3,10.961,17.864,17.864,0,0,1-3.3,11A10.205,10.205,0,0,1,30.107.557,10.2,10.2,0,0,1,21.63-3.768,17.864,17.864,0,0,1,18.333-14.772Zm19.524,0a14.834,14.834,0,0,0-2.141-8.306,6.4,6.4,0,0,0-5.609-3.254A6.4,6.4,0,0,0,24.5-23.078a14.834,14.834,0,0,0-2.141,8.306A15.049,15.049,0,0,0,24.5-6.422a6.418,6.418,0,0,0,5.609,3.211,6.4,6.4,0,0,0,5.609-3.254A14.965,14.965,0,0,0,37.857-14.772ZM56.183-29.415V-.128H52.244V-24.534L46.549-22.05l-1.5-3.34,8.606-4.025Zm5.481,14.643a17.635,17.635,0,0,1,3.3-11A10.205,10.205,0,0,1,73.438-30.1a10.174,10.174,0,0,1,8.478,4.367,17.563,17.563,0,0,1,3.3,10.961,17.864,17.864,0,0,1-3.3,11A10.205,10.205,0,0,1,73.438.557,10.2,10.2,0,0,1,64.96-3.768,17.864,17.864,0,0,1,61.663-14.772Zm19.524,0a14.834,14.834,0,0,0-2.141-8.306,6.4,6.4,0,0,0-5.609-3.254,6.4,6.4,0,0,0-5.609,3.254,14.834,14.834,0,0,0-2.141,8.306,15.049,15.049,0,0,0,2.141,8.349,6.418,6.418,0,0,0,5.609,3.211,6.4,6.4,0,0,0,5.609-3.254A14.965,14.965,0,0,0,81.188-14.772ZM99.513-29.415V-.128H95.574V-24.534L89.879-22.05l-1.5-3.34,8.606-4.025Z" transform="translate(309.28 1451.344)" fill="#d3e3f9"/>
    <path id="Path_119" data-name="Path 119" d="M1.892-16.144a16.056,16.056,0,0,1,3-10.019A9.292,9.292,0,0,1,12.613-30.1a9.263,9.263,0,0,1,7.719,3.976,15.991,15.991,0,0,1,3,9.98,16.265,16.265,0,0,1-3,10.019,9.291,9.291,0,0,1-7.719,3.937A9.291,9.291,0,0,1,4.894-6.125,16.265,16.265,0,0,1,1.892-16.144Zm17.777,0a13.506,13.506,0,0,0-1.949-7.563,5.829,5.829,0,0,0-5.107-2.963,5.829,5.829,0,0,0-5.107,2.963,13.506,13.506,0,0,0-1.949,7.563,13.7,13.7,0,0,0,1.949,7.6,5.844,5.844,0,0,0,5.107,2.924,5.829,5.829,0,0,0,5.107-2.963A13.625,13.625,0,0,0,19.669-16.144Zm7.1,0a16.056,16.056,0,0,1,3-10.019A9.291,9.291,0,0,1,37.484-30.1,9.263,9.263,0,0,1,45.2-26.124a15.991,15.991,0,0,1,3,9.98,16.265,16.265,0,0,1-3,10.019,9.291,9.291,0,0,1-7.719,3.937,9.291,9.291,0,0,1-7.719-3.937A16.265,16.265,0,0,1,26.764-16.144Zm17.777,0a13.506,13.506,0,0,0-1.949-7.563,5.829,5.829,0,0,0-5.107-2.963,5.829,5.829,0,0,0-5.107,2.963,13.506,13.506,0,0,0-1.949,7.563,13.7,13.7,0,0,0,1.949,7.6,5.844,5.844,0,0,0,5.107,2.924,5.829,5.829,0,0,0,5.107-2.963A13.625,13.625,0,0,0,44.54-16.144ZM61.225-29.476V-2.811H57.639V-25.032l-5.185,2.261L51.09-25.812l7.836-3.664Zm4.99,13.332a16.056,16.056,0,0,1,3-10.019A9.292,9.292,0,0,1,76.936-30.1a9.263,9.263,0,0,1,7.719,3.976,15.991,15.991,0,0,1,3,9.98,16.265,16.265,0,0,1-3,10.019,9.291,9.291,0,0,1-7.719,3.937,9.292,9.292,0,0,1-7.719-3.937A16.265,16.265,0,0,1,66.215-16.144Zm17.777,0a13.506,13.506,0,0,0-1.949-7.563,5.829,5.829,0,0,0-5.107-2.963,5.829,5.829,0,0,0-5.107,2.963,13.506,13.506,0,0,0-1.949,7.563,13.7,13.7,0,0,0,1.949,7.6,5.844,5.844,0,0,0,5.107,2.924,5.829,5.829,0,0,0,5.107-2.963A13.625,13.625,0,0,0,83.992-16.144Zm16.685-13.332V-2.811H97.091V-25.032l-5.185,2.261-1.364-3.041,7.836-3.664Z" transform="translate(309.108 1495.157)" fill="#a8dab5"/>
    <path id="Path_120" data-name="Path 120" d="M1.892-16.414a15.745,15.745,0,0,1,2.944-9.825A9.112,9.112,0,0,1,12.405-30.1a9.084,9.084,0,0,1,7.569,3.9,15.681,15.681,0,0,1,2.944,9.787,15.95,15.95,0,0,1-2.944,9.825,9.112,9.112,0,0,1-7.569,3.861A9.112,9.112,0,0,1,4.836-6.589,15.95,15.95,0,0,1,1.892-16.414Zm17.433,0a13.245,13.245,0,0,0-1.911-7.417,5.716,5.716,0,0,0-5.008-2.905A5.716,5.716,0,0,0,7.4-23.83a13.245,13.245,0,0,0-1.911,7.417A13.437,13.437,0,0,0,7.4-8.959a5.731,5.731,0,0,0,5.008,2.867A5.716,5.716,0,0,0,17.413-9,13.362,13.362,0,0,0,19.325-16.414ZM35.687-29.488V-3.339H32.17V-25.13l-5.085,2.217-1.338-2.982,7.684-3.594Zm14.68,0V-3.339H46.85V-25.13l-5.085,2.217-1.338-2.982,7.684-3.594ZM55.26-16.414A15.745,15.745,0,0,1,58.2-26.239,9.112,9.112,0,0,1,65.773-30.1a9.084,9.084,0,0,1,7.569,3.9,15.681,15.681,0,0,1,2.944,9.787,15.95,15.95,0,0,1-2.944,9.825,9.112,9.112,0,0,1-7.569,3.861A9.112,9.112,0,0,1,58.2-6.589,15.95,15.95,0,0,1,55.26-16.414Zm17.433,0a13.245,13.245,0,0,0-1.911-7.417,5.716,5.716,0,0,0-5.008-2.905,5.716,5.716,0,0,0-5.008,2.905,13.245,13.245,0,0,0-1.911,7.417,13.437,13.437,0,0,0,1.911,7.455,5.731,5.731,0,0,0,5.008,2.867A5.716,5.716,0,0,0,70.782-9,13.362,13.362,0,0,0,72.693-16.414Zm6.958,0a15.745,15.745,0,0,1,2.944-9.825A9.112,9.112,0,0,1,90.164-30.1a9.084,9.084,0,0,1,7.569,3.9,15.681,15.681,0,0,1,2.944,9.787,15.95,15.95,0,0,1-2.944,9.825,9.112,9.112,0,0,1-7.569,3.861,9.112,9.112,0,0,1-7.569-3.861A15.95,15.95,0,0,1,79.651-16.414Zm17.433,0a13.245,13.245,0,0,0-1.911-7.417,5.716,5.716,0,0,0-5.008-2.905,5.716,5.716,0,0,0-5.008,2.905,13.245,13.245,0,0,0-1.911,7.417,13.437,13.437,0,0,0,1.911,7.455,5.731,5.731,0,0,0,5.008,2.867A5.716,5.716,0,0,0,95.172-9,13.362,13.362,0,0,0,97.083-16.414Z" transform="translate(309.108 1536.11)" fill="#fde293"/>
    <path id="Path_121" data-name="Path 121" d="M1.892-16.158A16.206,16.206,0,0,1,4.847-26.167a9.105,9.105,0,0,1,7.6-3.933,9.079,9.079,0,0,1,7.6,3.972A16.14,16.14,0,0,1,23-16.158,16.417,16.417,0,0,1,20.045-6.149a9.105,9.105,0,0,1-7.6,3.933,9.105,9.105,0,0,1-7.6-3.933A16.417,16.417,0,0,1,1.892-16.158Zm17.5,0a13.646,13.646,0,0,0-1.919-7.555,5.723,5.723,0,0,0-5.028-2.96,5.723,5.723,0,0,0-5.028,2.96A13.646,13.646,0,0,0,5.5-16.158,13.844,13.844,0,0,0,7.418-8.563a5.737,5.737,0,0,0,5.028,2.921A5.723,5.723,0,0,0,17.473-8.6,13.766,13.766,0,0,0,19.392-16.158ZM35.818-29.477V-2.839H32.287v-22.2l-5.1,2.259L25.84-25.816l7.714-3.661Zm4.912,13.319a16.206,16.206,0,0,1,2.955-10.009,9.105,9.105,0,0,1,7.6-3.933,9.079,9.079,0,0,1,7.6,3.972,16.14,16.14,0,0,1,2.955,9.97A16.417,16.417,0,0,1,58.883-6.149a9.105,9.105,0,0,1-7.6,3.933,9.105,9.105,0,0,1-7.6-3.933A16.417,16.417,0,0,1,40.731-16.158Zm17.5,0a13.646,13.646,0,0,0-1.919-7.555,5.723,5.723,0,0,0-5.028-2.96,5.723,5.723,0,0,0-5.028,2.96,13.646,13.646,0,0,0-1.919,7.555,13.844,13.844,0,0,0,1.919,7.594,5.737,5.737,0,0,0,5.028,2.921A5.723,5.723,0,0,0,56.312-8.6,13.766,13.766,0,0,0,58.231-16.158ZM74.657-29.477V-2.839H71.126v-22.2l-5.1,2.259-1.343-3.038,7.714-3.661Zm4.912,13.319a16.206,16.206,0,0,1,2.955-10.009,9.105,9.105,0,0,1,7.6-3.933,9.079,9.079,0,0,1,7.6,3.972,16.14,16.14,0,0,1,2.955,9.97A16.417,16.417,0,0,1,97.722-6.149a9.105,9.105,0,0,1-7.6,3.933,9.105,9.105,0,0,1-7.6-3.933A16.417,16.417,0,0,1,79.569-16.158Zm17.5,0a13.646,13.646,0,0,0-1.919-7.555,5.723,5.723,0,0,0-5.028-2.96,5.723,5.723,0,0,0-5.028,2.96,13.646,13.646,0,0,0-1.919,7.555A13.844,13.844,0,0,0,85.1-8.563a5.737,5.737,0,0,0,5.028,2.921A5.723,5.723,0,0,0,95.151-8.6,13.766,13.766,0,0,0,97.07-16.158Z" transform="translate(309.108 1577.1)" fill="#fad2cf"/>
    <path id="Path_123" data-name="Path 123" d="M1.892-14.827A15.935,15.935,0,0,1,5.7-25.791a12.49,12.49,0,0,1,9.8-4.309,12.436,12.436,0,0,1,9.8,4.351,15.874,15.874,0,0,1,3.812,10.921A16.135,16.135,0,0,1,25.307-3.863a12.49,12.49,0,0,1-9.8,4.309A12.49,12.49,0,0,1,5.7-3.863,16.135,16.135,0,0,1,1.892-14.827Zm22.573,0A13.253,13.253,0,0,0,21.99-23.1a7.693,7.693,0,0,0-6.485-3.242A7.693,7.693,0,0,0,9.02-23.1a13.253,13.253,0,0,0-2.475,8.276A13.439,13.439,0,0,0,9.02-6.508a7.727,7.727,0,0,0,6.485,3.2A7.693,7.693,0,0,0,21.99-6.551,13.367,13.367,0,0,0,24.465-14.827Zm9.009,0a15.935,15.935,0,0,1,3.812-10.964,12.49,12.49,0,0,1,9.8-4.309,12.436,12.436,0,0,1,9.8,4.351A15.874,15.874,0,0,1,60.7-14.827,16.135,16.135,0,0,1,56.889-3.863a12.49,12.49,0,0,1-9.8,4.309,12.49,12.49,0,0,1-9.8-4.309A16.135,16.135,0,0,1,33.475-14.827Zm22.573,0A13.253,13.253,0,0,0,53.573-23.1a7.693,7.693,0,0,0-6.485-3.242A7.693,7.693,0,0,0,40.6-23.1a13.253,13.253,0,0,0-2.475,8.276A13.439,13.439,0,0,0,40.6-6.508a7.727,7.727,0,0,0,6.485,3.2,7.693,7.693,0,0,0,6.485-3.242A13.367,13.367,0,0,0,56.048-14.827Zm21.187-14.59V-.237H72.681V-24.554L66.1-22.08l-1.733-3.328,9.95-4.01Zm19.009,0V-.237H91.69V-24.554L85.106-22.08l-1.733-3.328,9.95-4.01Zm19.009,0V-.237H110.7V-24.554l-6.584,2.474-1.733-3.328,9.95-4.01Z" transform="translate(411.689 1406.942)" fill="#fde293"/>
    <path id="Path_124" data-name="Path 124" d="M14.617-29.416V-.178H10.054V-24.543l-6.6,2.479L1.72-25.4l9.971-4.018ZM20.967-14.8a15.966,15.966,0,0,1,3.82-10.986A12.517,12.517,0,0,1,34.608-30.1a12.462,12.462,0,0,1,9.822,4.36A15.9,15.9,0,0,1,48.25-14.8,16.166,16.166,0,0,1,44.43-3.811,12.517,12.517,0,0,1,34.608.506a12.517,12.517,0,0,1-9.822-4.317A16.166,16.166,0,0,1,20.967-14.8Zm22.62,0a13.279,13.279,0,0,0-2.48-8.293,7.709,7.709,0,0,0-6.5-3.249,7.709,7.709,0,0,0-6.5,3.249A13.279,13.279,0,0,0,25.63-14.8a13.465,13.465,0,0,0,2.48,8.335,7.744,7.744,0,0,0,6.5,3.206,7.709,7.709,0,0,0,6.5-3.249A13.392,13.392,0,0,0,43.587-14.8ZM64.818-29.416V-.178H60.254V-24.543l-6.6,2.479L51.921-25.4l9.971-4.018ZM71.168-14.8a15.966,15.966,0,0,1,3.82-10.986A12.517,12.517,0,0,1,84.809-30.1a12.462,12.462,0,0,1,9.822,4.36A15.9,15.9,0,0,1,98.45-14.8a16.167,16.167,0,0,1-3.82,10.986A12.517,12.517,0,0,1,84.809.506a12.517,12.517,0,0,1-9.822-4.317A16.166,16.166,0,0,1,71.168-14.8Zm22.62,0a13.279,13.279,0,0,0-2.48-8.293,7.709,7.709,0,0,0-6.5-3.249,7.709,7.709,0,0,0-6.5,3.249A13.279,13.279,0,0,0,75.83-14.8a13.464,13.464,0,0,0,2.48,8.335,7.744,7.744,0,0,0,6.5,3.206,7.709,7.709,0,0,0,6.5-3.249A13.393,13.393,0,0,0,93.788-14.8Zm21.231-14.619V-.178h-4.564V-24.543l-6.6,2.479L102.121-25.4l9.971-4.018Z" transform="translate(411.923 1451.394)" fill="#a8dab5"/>
    <path id="Path_125" data-name="Path 125" d="M1.892-15.83A16.417,16.417,0,0,1,4.961-26.074,9.5,9.5,0,0,1,12.853-30.1a9.471,9.471,0,0,1,7.892,4.066,16.35,16.35,0,0,1,3.069,10.2A16.63,16.63,0,0,1,20.745-5.587a9.5,9.5,0,0,1-7.892,4.026A9.5,9.5,0,0,1,4.961-5.587,16.63,16.63,0,0,1,1.892-15.83Zm18.176,0a13.81,13.81,0,0,0-1.993-7.733,5.96,5.96,0,0,0-5.222-3.029,5.96,5.96,0,0,0-5.222,3.029A13.81,13.81,0,0,0,5.639-15.83,14.01,14.01,0,0,0,7.632-8.058a5.975,5.975,0,0,0,5.222,2.989A5.96,5.96,0,0,0,18.075-8.1,13.931,13.931,0,0,0,20.068-15.83Zm7.254,0a16.417,16.417,0,0,1,3.069-10.244A9.5,9.5,0,0,1,38.283-30.1a9.471,9.471,0,0,1,7.892,4.066,16.35,16.35,0,0,1,3.069,10.2A16.63,16.63,0,0,1,46.175-5.587a9.5,9.5,0,0,1-7.892,4.026,9.5,9.5,0,0,1-7.892-4.026A16.63,16.63,0,0,1,27.322-15.83Zm18.176,0A13.81,13.81,0,0,0,43.5-23.563a5.96,5.96,0,0,0-5.222-3.029,5.96,5.96,0,0,0-5.222,3.029,13.81,13.81,0,0,0-1.993,7.733,14.01,14.01,0,0,0,1.993,7.773,5.975,5.975,0,0,0,5.222,2.989A5.96,5.96,0,0,0,43.5-8.1,13.931,13.931,0,0,0,45.5-15.83Zm17.06-13.632V-2.2H58.89v-22.72l-5.3,2.312-1.4-3.109,8.012-3.747Zm5.1,13.632a16.417,16.417,0,0,1,3.069-10.244A9.5,9.5,0,0,1,78.621-30.1a9.471,9.471,0,0,1,7.892,4.066,16.35,16.35,0,0,1,3.069,10.2A16.63,16.63,0,0,1,86.513-5.587a9.5,9.5,0,0,1-7.892,4.026,9.5,9.5,0,0,1-7.892-4.026A16.63,16.63,0,0,1,67.659-15.83Zm18.176,0a13.81,13.81,0,0,0-1.993-7.733,5.96,5.96,0,0,0-5.222-3.029A5.96,5.96,0,0,0,73.4-23.563a13.81,13.81,0,0,0-1.993,7.733A14.01,14.01,0,0,0,73.4-8.058a5.975,5.975,0,0,0,5.222,2.989A5.96,5.96,0,0,0,83.842-8.1,13.931,13.931,0,0,0,85.835-15.83Zm7.254,0a16.417,16.417,0,0,1,3.069-10.244,9.5,9.5,0,0,1,7.892-4.026,9.471,9.471,0,0,1,7.892,4.066,16.35,16.35,0,0,1,3.069,10.2,16.63,16.63,0,0,1-3.069,10.244,9.5,9.5,0,0,1-7.892,4.026,9.5,9.5,0,0,1-7.892-4.026A16.63,16.63,0,0,1,93.09-15.83Zm18.176,0a13.81,13.81,0,0,0-1.993-7.733,5.96,5.96,0,0,0-5.222-3.029,5.96,5.96,0,0,0-5.222,3.029,13.81,13.81,0,0,0-1.993,7.733,14.01,14.01,0,0,0,1.993,7.773,5.975,5.975,0,0,0,5.222,2.989A5.96,5.96,0,0,0,109.272-8.1,13.931,13.931,0,0,0,111.265-15.83Z" transform="translate(411.929 1494.5)" fill="#ea4235"/>
    <path id="Path_127" data-name="Path 127" d="M1.892-16.158A14.787,14.787,0,0,1,5.281-26.167,10.98,10.98,0,0,1,14-30.1a10.934,10.934,0,0,1,8.715,3.972,14.729,14.729,0,0,1,3.389,9.97A14.974,14.974,0,0,1,22.712-6.149,10.98,10.98,0,0,1,14-2.215,10.98,10.98,0,0,1,5.281-6.149,14.974,14.974,0,0,1,1.892-16.158Zm20.072,0a12.325,12.325,0,0,0-2.2-7.555A6.784,6.784,0,0,0,14-26.673a6.784,6.784,0,0,0-5.766,2.96,12.325,12.325,0,0,0-2.2,7.555,12.5,12.5,0,0,0,2.2,7.594A6.812,6.812,0,0,0,14-5.643,6.784,6.784,0,0,0,19.763-8.6,12.431,12.431,0,0,0,21.964-16.158ZM40.8-29.477V-2.839h-4.05v-22.2L30.9-22.778l-1.541-3.038,8.847-3.661Zm5.634,13.319a14.787,14.787,0,0,1,3.389-10.009A10.98,10.98,0,0,1,58.541-30.1a10.934,10.934,0,0,1,8.715,3.972,14.73,14.73,0,0,1,3.389,9.97A14.974,14.974,0,0,1,67.257-6.149a10.98,10.98,0,0,1-8.715,3.933,10.98,10.98,0,0,1-8.715-3.933A14.974,14.974,0,0,1,46.437-16.158Zm20.072,0a12.325,12.325,0,0,0-2.2-7.555,6.784,6.784,0,0,0-5.766-2.96,6.784,6.784,0,0,0-5.766,2.96,12.325,12.325,0,0,0-2.2,7.555,12.5,12.5,0,0,0,2.2,7.594,6.812,6.812,0,0,0,5.766,2.921A6.784,6.784,0,0,0,64.307-8.6,12.431,12.431,0,0,0,66.508-16.158ZM85.347-29.477V-2.839H81.3v-22.2l-5.854,2.259L73.9-25.816l8.847-3.661Zm5.634,13.319a14.787,14.787,0,0,1,3.389-10.009,10.98,10.98,0,0,1,8.715-3.933,10.934,10.934,0,0,1,8.715,3.972,14.729,14.729,0,0,1,3.389,9.97A14.974,14.974,0,0,1,111.8-6.149a10.98,10.98,0,0,1-8.715,3.933,10.98,10.98,0,0,1-8.715-3.933A14.974,14.974,0,0,1,90.982-16.158Zm20.072,0a12.325,12.325,0,0,0-2.2-7.555,6.784,6.784,0,0,0-5.766-2.96,6.784,6.784,0,0,0-5.766,2.96,12.325,12.325,0,0,0-2.2,7.555,12.5,12.5,0,0,0,2.2,7.594,6.812,6.812,0,0,0,5.766,2.921,6.784,6.784,0,0,0,5.766-2.96A12.431,12.431,0,0,0,111.053-16.158Z" transform="translate(411.751 1535.582)" fill="#d3e3f9"/>
    <path id="Path_129" data-name="Path 129" d="M1.892-15.885a15.111,15.111,0,0,1,3.443-10.2,11.136,11.136,0,0,1,8.853-4.01,11.09,11.09,0,0,1,8.853,4.05,15.052,15.052,0,0,1,3.443,10.165,15.3,15.3,0,0,1-3.443,10.2,11.136,11.136,0,0,1-8.853,4.01,11.136,11.136,0,0,1-8.853-4.01A15.3,15.3,0,0,1,1.892-15.885Zm20.388,0a12.6,12.6,0,0,0-2.236-7.7,6.883,6.883,0,0,0-5.857-3.018A6.883,6.883,0,0,0,8.33-23.588a12.6,12.6,0,0,0-2.236,7.7A12.777,12.777,0,0,0,8.33-8.143a6.911,6.911,0,0,0,5.857,2.978,6.883,6.883,0,0,0,5.857-3.018A12.707,12.707,0,0,0,22.28-15.885Zm8.137,0a15.111,15.111,0,0,1,3.443-10.2,11.136,11.136,0,0,1,8.853-4.01,11.09,11.09,0,0,1,8.853,4.05,15.052,15.052,0,0,1,3.443,10.165,15.3,15.3,0,0,1-3.443,10.2,11.136,11.136,0,0,1-8.853,4.01,11.136,11.136,0,0,1-8.853-4.01A15.3,15.3,0,0,1,30.418-15.885Zm20.388,0a12.6,12.6,0,0,0-2.236-7.7,6.883,6.883,0,0,0-5.857-3.018,6.883,6.883,0,0,0-5.857,3.018,12.6,12.6,0,0,0-2.236,7.7,12.777,12.777,0,0,0,2.236,7.743,6.911,6.911,0,0,0,5.857,2.978,6.883,6.883,0,0,0,5.857-3.018A12.707,12.707,0,0,0,50.806-15.885ZM69.943-29.465V-2.306H65.829V-24.938l-5.947,2.3-1.565-3.1L67.3-29.465Zm5.723,13.579a15.111,15.111,0,0,1,3.443-10.2,11.136,11.136,0,0,1,8.853-4.01,11.09,11.09,0,0,1,8.853,4.05,15.052,15.052,0,0,1,3.443,10.165,15.3,15.3,0,0,1-3.443,10.2,11.136,11.136,0,0,1-8.853,4.01,11.136,11.136,0,0,1-8.853-4.01A15.3,15.3,0,0,1,75.666-15.885Zm20.388,0a12.6,12.6,0,0,0-2.236-7.7,6.883,6.883,0,0,0-5.857-3.018A6.883,6.883,0,0,0,82.1-23.588a12.6,12.6,0,0,0-2.236,7.7A12.777,12.777,0,0,0,82.1-8.143a6.911,6.911,0,0,0,5.857,2.978,6.883,6.883,0,0,0,5.857-3.018A12.707,12.707,0,0,0,96.054-15.885Zm19.136-13.579V-2.306h-4.113V-24.938l-5.947,2.3-1.565-3.1,8.987-3.732Z" transform="translate(411.751 1577.1)" fill="#fde293"/>
    <path id="Path_130" data-name="Path 130" d="M1.892-14.692A17.453,17.453,0,0,1,5.281-25.753,10.569,10.569,0,0,1,14-30.1a10.534,10.534,0,0,1,8.715,4.39A17.382,17.382,0,0,1,26.1-14.692,17.679,17.679,0,0,1,22.712-3.631,10.569,10.569,0,0,1,14,.716,10.569,10.569,0,0,1,5.281-3.631,17.679,17.679,0,0,1,1.892-14.692Zm20.072,0a14.658,14.658,0,0,0-2.2-8.35A6.611,6.611,0,0,0,14-26.313,6.611,6.611,0,0,0,8.23-23.042a14.658,14.658,0,0,0-2.2,8.35A14.87,14.87,0,0,0,8.23-6.3,6.63,6.63,0,0,0,14-3.072a6.611,6.611,0,0,0,5.766-3.271A14.787,14.787,0,0,0,21.964-14.692ZM40.8-29.411V.027h-4.05V-24.5l-5.854,2.5-1.541-3.357,8.847-4.046Zm5.634,14.719a17.453,17.453,0,0,1,3.389-11.061A10.569,10.569,0,0,1,58.541-30.1a10.534,10.534,0,0,1,8.715,4.39,17.383,17.383,0,0,1,3.389,11.018A17.679,17.679,0,0,1,67.257-3.631,10.569,10.569,0,0,1,58.541.716a10.569,10.569,0,0,1-8.715-4.347A17.679,17.679,0,0,1,46.437-14.692Zm20.072,0a14.658,14.658,0,0,0-2.2-8.35,6.611,6.611,0,0,0-5.766-3.271,6.611,6.611,0,0,0-5.766,3.271,14.658,14.658,0,0,0-2.2,8.35,14.87,14.87,0,0,0,2.2,8.393,6.63,6.63,0,0,0,5.766,3.228,6.611,6.611,0,0,0,5.766-3.271A14.787,14.787,0,0,0,66.508-14.692ZM85.347-29.411V.027H81.3V-24.5l-5.854,2.5L73.9-25.366l8.847-4.046Zm5.634,14.719a17.453,17.453,0,0,1,3.389-11.061,10.569,10.569,0,0,1,8.715-4.347,10.534,10.534,0,0,1,8.715,4.39,17.382,17.382,0,0,1,3.389,11.018A17.679,17.679,0,0,1,111.8-3.631,10.569,10.569,0,0,1,103.086.716a10.569,10.569,0,0,1-8.715-4.347A17.679,17.679,0,0,1,90.982-14.692Zm20.072,0a14.658,14.658,0,0,0-2.2-8.35,6.611,6.611,0,0,0-5.766-3.271,6.611,6.611,0,0,0-5.766,3.271,14.658,14.658,0,0,0-2.2,8.35A14.87,14.87,0,0,0,97.32-6.3a6.63,6.63,0,0,0,5.766,3.228,6.611,6.611,0,0,0,5.766-3.271A14.787,14.787,0,0,0,111.053-14.692Z" transform="translate(411.751 1615.688)" fill="#a8dab5"/>
    <path id="Path_132" data-name="Path 132" d="M12.371-29.465V-2.306H8.6V-24.938l-5.449,2.3-1.434-3.1,8.234-3.732Zm5.244,13.579a16,16,0,0,1,3.154-10.2,9.866,9.866,0,0,1,8.111-4.01,9.833,9.833,0,0,1,8.111,4.05,15.94,15.94,0,0,1,3.154,10.165,16.211,16.211,0,0,1-3.154,10.2,9.866,9.866,0,0,1-8.111,4.01,9.866,9.866,0,0,1-8.111-4.01A16.211,16.211,0,0,1,17.615-15.885Zm18.681,0a13.434,13.434,0,0,0-2.048-7.7,6.164,6.164,0,0,0-5.367-3.018,6.164,6.164,0,0,0-5.367,3.018,13.434,13.434,0,0,0-2.048,7.7,13.627,13.627,0,0,0,2.048,7.743,6.183,6.183,0,0,0,5.367,2.978,6.164,6.164,0,0,0,5.367-3.018A13.551,13.551,0,0,0,36.3-15.885ZM53.829-29.465V-2.306H50.061V-24.938l-5.449,2.3-1.434-3.1,8.234-3.732Zm5.244,13.579a16,16,0,0,1,3.154-10.2,9.866,9.866,0,0,1,8.111-4.01,9.833,9.833,0,0,1,8.111,4.05A15.94,15.94,0,0,1,81.6-15.885a16.211,16.211,0,0,1-3.154,10.2,9.866,9.866,0,0,1-8.111,4.01,9.866,9.866,0,0,1-8.111-4.01A16.211,16.211,0,0,1,59.073-15.885Zm18.681,0a13.434,13.434,0,0,0-2.048-7.7,6.164,6.164,0,0,0-5.367-3.018,6.164,6.164,0,0,0-5.367,3.018,13.434,13.434,0,0,0-2.048,7.7,13.627,13.627,0,0,0,2.048,7.743,6.183,6.183,0,0,0,5.367,2.978,6.164,6.164,0,0,0,5.367-3.018A13.551,13.551,0,0,0,77.754-15.885Zm7.456,0a16,16,0,0,1,3.154-10.2,9.866,9.866,0,0,1,8.111-4.01,9.833,9.833,0,0,1,8.111,4.05,15.94,15.94,0,0,1,3.154,10.165,16.211,16.211,0,0,1-3.154,10.2,9.866,9.866,0,0,1-8.111,4.01,9.866,9.866,0,0,1-8.111-4.01A16.211,16.211,0,0,1,85.21-15.885Zm18.681,0a13.433,13.433,0,0,0-2.048-7.7,6.164,6.164,0,0,0-5.367-3.018,6.164,6.164,0,0,0-5.367,3.018,13.434,13.434,0,0,0-2.048,7.7,13.627,13.627,0,0,0,2.048,7.743,6.183,6.183,0,0,0,5.367,2.978,6.164,6.164,0,0,0,5.367-3.018A13.551,13.551,0,0,0,103.891-15.885Z" transform="translate(529.258 1577.1)" fill="#109d58"/>
    <path id="Path_133" data-name="Path 133" d="M1.892-15.83A17.182,17.182,0,0,1,4.771-26.074a8.75,8.75,0,0,1,7.4-4.026,8.728,8.728,0,0,1,7.4,4.066,17.111,17.111,0,0,1,2.879,10.2A17.408,17.408,0,0,1,19.579-5.587a8.75,8.75,0,0,1-7.4,4.026,8.75,8.75,0,0,1-7.4-4.026A17.408,17.408,0,0,1,1.892-15.83Zm17.051,0a14.514,14.514,0,0,0-1.87-7.733,5.535,5.535,0,0,0-4.9-3.029,5.535,5.535,0,0,0-4.9,3.029,14.514,14.514,0,0,0-1.87,7.733,14.727,14.727,0,0,0,1.87,7.773,5.545,5.545,0,0,0,4.9,2.989,5.535,5.535,0,0,0,4.9-3.029A14.643,14.643,0,0,0,18.943-15.83Zm6.805,0a17.182,17.182,0,0,1,2.879-10.244,8.75,8.75,0,0,1,7.4-4.026,8.728,8.728,0,0,1,7.4,4.066,17.111,17.111,0,0,1,2.879,10.2A17.408,17.408,0,0,1,43.435-5.587a8.75,8.75,0,0,1-7.4,4.026,8.749,8.749,0,0,1-7.4-4.026A17.408,17.408,0,0,1,25.748-15.83Zm17.051,0a14.514,14.514,0,0,0-1.87-7.733,5.535,5.535,0,0,0-4.9-3.029,5.535,5.535,0,0,0-4.9,3.029,14.514,14.514,0,0,0-1.87,7.733,14.727,14.727,0,0,0,1.87,7.773,5.545,5.545,0,0,0,4.9,2.989A5.535,5.535,0,0,0,40.93-8.1,14.643,14.643,0,0,0,42.8-15.83Zm16-13.632V-2.2h-3.44v-22.72L50.39-22.606l-1.309-3.109L56.6-29.462ZM63.589-15.83a17.182,17.182,0,0,1,2.879-10.244,8.75,8.75,0,0,1,7.4-4.026,8.728,8.728,0,0,1,7.4,4.066,17.111,17.111,0,0,1,2.879,10.2A17.408,17.408,0,0,1,81.276-5.587a8.75,8.75,0,0,1-7.4,4.026,8.75,8.75,0,0,1-7.4-4.026A17.408,17.408,0,0,1,63.589-15.83Zm17.051,0a14.514,14.514,0,0,0-1.87-7.733,5.535,5.535,0,0,0-4.9-3.029,5.535,5.535,0,0,0-4.9,3.029A14.514,14.514,0,0,0,67.1-15.83a14.727,14.727,0,0,0,1.87,7.773,5.545,5.545,0,0,0,4.9,2.989A5.535,5.535,0,0,0,78.77-8.1,14.643,14.643,0,0,0,80.64-15.83Zm6.805,0a17.182,17.182,0,0,1,2.879-10.244,8.75,8.75,0,0,1,7.4-4.026,8.728,8.728,0,0,1,7.4,4.066,17.11,17.11,0,0,1,2.879,10.2,17.408,17.408,0,0,1-2.879,10.244,8.75,8.75,0,0,1-7.4,4.026,8.75,8.75,0,0,1-7.4-4.026A17.408,17.408,0,0,1,87.446-15.83Zm17.051,0a14.514,14.514,0,0,0-1.87-7.733,5.535,5.535,0,0,0-4.9-3.029,5.535,5.535,0,0,0-4.9,3.029,14.514,14.514,0,0,0-1.87,7.733,14.727,14.727,0,0,0,1.87,7.773,5.545,5.545,0,0,0,4.9,2.989,5.535,5.535,0,0,0,4.9-3.029A14.643,14.643,0,0,0,104.5-15.83Z" transform="translate(528.989 1535.441)" fill="#fad2cf"/>
    <path id="Path_134" data-name="Path 134" d="M13.82-29.465V-2.339H9.539V-24.944l-6.19,2.3L1.72-25.737l9.355-3.728ZM19.778-15.9a14.712,14.712,0,0,1,3.584-10.192A11.8,11.8,0,0,1,32.576-30.1a11.75,11.75,0,0,1,9.215,4.045A14.656,14.656,0,0,1,45.375-15.9,14.9,14.9,0,0,1,41.791-5.71,11.8,11.8,0,0,1,32.576-1.7,11.8,11.8,0,0,1,23.361-5.71,14.9,14.9,0,0,1,19.778-15.9ZM41-15.9A12.224,12.224,0,0,0,38.673-23.6a7.26,7.26,0,0,0-6.1-3.014,7.26,7.26,0,0,0-6.1,3.014A12.224,12.224,0,0,0,24.152-15.9a12.4,12.4,0,0,0,2.327,7.734,7.293,7.293,0,0,0,6.1,2.974,7.26,7.26,0,0,0,6.1-3.014A12.329,12.329,0,0,0,41-15.9ZM60.919-29.465V-2.339H56.637V-24.944l-6.19,2.3-1.629-3.093,9.355-3.728ZM66.876-15.9A14.712,14.712,0,0,1,70.46-26.094,11.8,11.8,0,0,1,79.675-30.1a11.75,11.75,0,0,1,9.215,4.045A14.656,14.656,0,0,1,92.473-15.9,14.9,14.9,0,0,1,88.89-5.71,11.8,11.8,0,0,1,79.675-1.7,11.8,11.8,0,0,1,70.46-5.71,14.9,14.9,0,0,1,66.876-15.9Zm21.222,0A12.224,12.224,0,0,0,85.772-23.6a7.26,7.26,0,0,0-6.1-3.014,7.26,7.26,0,0,0-6.1,3.014A12.224,12.224,0,0,0,71.251-15.9a12.4,12.4,0,0,0,2.327,7.734,7.293,7.293,0,0,0,6.1,2.974,7.26,7.26,0,0,0,6.1-3.014A12.329,12.329,0,0,0,88.1-15.9Zm19.919-13.563V-2.339h-4.282V-24.944l-6.19,2.3-1.629-3.093,9.355-3.728Z" transform="translate(528.982 1494.643)" fill="#a8dab5"/>
    <path id="Path_135" data-name="Path 135" d="M1.892-14.8a17.843,17.843,0,0,1,3.23-10.987A9.94,9.94,0,0,1,13.428-30.1a9.911,9.911,0,0,1,8.306,4.36A17.769,17.769,0,0,1,24.964-14.8a18.075,18.075,0,0,1-3.23,10.987A9.94,9.94,0,0,1,13.428.509,9.94,9.94,0,0,1,5.122-3.809,18.075,18.075,0,0,1,1.892-14.8Zm19.129,0a15.028,15.028,0,0,0-2.1-8.293,6.251,6.251,0,0,0-5.5-3.249,6.251,6.251,0,0,0-5.5,3.249,15.028,15.028,0,0,0-2.1,8.293,15.247,15.247,0,0,0,2.1,8.336,6.266,6.266,0,0,0,5.5,3.206,6.251,6.251,0,0,0,5.5-3.249A15.161,15.161,0,0,0,21.021-14.8Zm7.635,0a17.843,17.843,0,0,1,3.23-10.987A9.94,9.94,0,0,1,40.191-30.1,9.911,9.911,0,0,1,48.5-25.74,17.77,17.77,0,0,1,51.727-14.8,18.075,18.075,0,0,1,48.5-3.809,9.94,9.94,0,0,1,40.191.509a9.94,9.94,0,0,1-8.306-4.318A18.075,18.075,0,0,1,28.655-14.8Zm19.129,0a15.028,15.028,0,0,0-2.1-8.293,6.251,6.251,0,0,0-5.5-3.249,6.251,6.251,0,0,0-5.5,3.249A15.028,15.028,0,0,0,32.6-14.8a15.247,15.247,0,0,0,2.1,8.336,6.266,6.266,0,0,0,5.5,3.206,6.251,6.251,0,0,0,5.5-3.249A15.161,15.161,0,0,0,47.784-14.8Zm17.954-14.62V-.175H61.878V-24.543L56.3-22.063,54.831-25.4l8.432-4.018ZM71.107-14.8a17.842,17.842,0,0,1,3.23-10.987A9.94,9.94,0,0,1,82.643-30.1a9.911,9.911,0,0,1,8.306,4.36A17.769,17.769,0,0,1,94.179-14.8a18.075,18.075,0,0,1-3.23,10.987A9.94,9.94,0,0,1,82.643.509a9.94,9.94,0,0,1-8.306-4.318A18.075,18.075,0,0,1,71.107-14.8Zm19.129,0a15.028,15.028,0,0,0-2.1-8.293,6.251,6.251,0,0,0-5.5-3.249,6.251,6.251,0,0,0-5.5,3.249,15.028,15.028,0,0,0-2.1,8.293,15.247,15.247,0,0,0,2.1,8.336,6.266,6.266,0,0,0,5.5,3.206,6.251,6.251,0,0,0,5.5-3.249A15.161,15.161,0,0,0,90.236-14.8Zm17.954-14.62V-.175H104.33V-24.543l-5.579,2.479L97.283-25.4l8.432-4.018Z" transform="translate(528.81 1451.391)" fill="#fde293"/>
    <path id="Path_136" data-name="Path 136" d="M12.371-29.418V-.284H8.6V-24.563l-5.449,2.47L1.72-25.415l8.234-4Zm5.244,14.567A18.033,18.033,0,0,1,20.769-25.8a9.651,9.651,0,0,1,8.111-4.3,9.624,9.624,0,0,1,8.111,4.345,17.959,17.959,0,0,1,3.154,10.9A18.269,18.269,0,0,1,36.992-3.9,9.651,9.651,0,0,1,28.881.4a9.651,9.651,0,0,1-8.111-4.3A18.269,18.269,0,0,1,17.615-14.851Zm18.681,0a15.209,15.209,0,0,0-2.048-8.263,6.085,6.085,0,0,0-5.367-3.237,6.085,6.085,0,0,0-5.367,3.237,15.209,15.209,0,0,0-2.048,8.263,15.431,15.431,0,0,0,2.048,8.306,6.1,6.1,0,0,0,5.367,3.195,6.085,6.085,0,0,0,5.367-3.237A15.344,15.344,0,0,0,36.3-14.851ZM53.829-29.418V-.284H50.061V-24.563l-5.449,2.47-1.434-3.322,8.234-4Zm5.244,14.567A18.033,18.033,0,0,1,62.228-25.8a9.651,9.651,0,0,1,8.111-4.3,9.624,9.624,0,0,1,8.111,4.345,17.959,17.959,0,0,1,3.154,10.9A18.269,18.269,0,0,1,78.45-3.9,9.651,9.651,0,0,1,70.339.4a9.651,9.651,0,0,1-8.111-4.3A18.269,18.269,0,0,1,59.073-14.851Zm18.681,0a15.209,15.209,0,0,0-2.048-8.263,6.085,6.085,0,0,0-5.367-3.237,6.085,6.085,0,0,0-5.367,3.237,15.209,15.209,0,0,0-2.048,8.263,15.431,15.431,0,0,0,2.048,8.306,6.1,6.1,0,0,0,5.367,3.195,6.085,6.085,0,0,0,5.367-3.237A15.344,15.344,0,0,0,77.754-14.851Zm7.456,0A18.033,18.033,0,0,1,88.364-25.8a9.651,9.651,0,0,1,8.111-4.3,9.624,9.624,0,0,1,8.111,4.345,17.959,17.959,0,0,1,3.154,10.9A18.269,18.269,0,0,1,104.587-3.9,9.651,9.651,0,0,1,96.476.4a9.651,9.651,0,0,1-8.111-4.3A18.269,18.269,0,0,1,85.21-14.851Zm18.681,0a15.209,15.209,0,0,0-2.048-8.263,6.085,6.085,0,0,0-5.367-3.237,6.085,6.085,0,0,0-5.367,3.237,15.209,15.209,0,0,0-2.048,8.263,15.431,15.431,0,0,0,2.048,8.306,6.1,6.1,0,0,0,5.367,3.195,6.085,6.085,0,0,0,5.367-3.237A15.344,15.344,0,0,0,103.891-14.851Z" transform="translate(529.258 1615.736)" fill="#fabb04"/>
    <path id="Path_137" data-name="Path 137" d="M1.892-16.414a15.745,15.745,0,0,1,2.944-9.825A9.112,9.112,0,0,1,12.405-30.1a9.084,9.084,0,0,1,7.569,3.9,15.681,15.681,0,0,1,2.944,9.787,15.95,15.95,0,0,1-2.944,9.825,9.112,9.112,0,0,1-7.569,3.861A9.112,9.112,0,0,1,4.836-6.589,15.95,15.95,0,0,1,1.892-16.414Zm17.433,0a13.245,13.245,0,0,0-1.911-7.417,5.716,5.716,0,0,0-5.008-2.905A5.716,5.716,0,0,0,7.4-23.83a13.245,13.245,0,0,0-1.911,7.417A13.437,13.437,0,0,0,7.4-8.959a5.731,5.731,0,0,0,5.008,2.867A5.716,5.716,0,0,0,17.413-9,13.362,13.362,0,0,0,19.325-16.414ZM35.687-29.488V-3.339H32.17V-25.13l-5.085,2.217-1.338-2.982,7.684-3.594Zm14.68,0V-3.339H46.85V-25.13l-5.085,2.217-1.338-2.982,7.684-3.594ZM55.26-16.414A15.745,15.745,0,0,1,58.2-26.239,9.112,9.112,0,0,1,65.773-30.1a9.084,9.084,0,0,1,7.569,3.9,15.681,15.681,0,0,1,2.944,9.787,15.95,15.95,0,0,1-2.944,9.825,9.112,9.112,0,0,1-7.569,3.861A9.112,9.112,0,0,1,58.2-6.589,15.95,15.95,0,0,1,55.26-16.414Zm17.433,0a13.245,13.245,0,0,0-1.911-7.417,5.716,5.716,0,0,0-5.008-2.905,5.716,5.716,0,0,0-5.008,2.905,13.245,13.245,0,0,0-1.911,7.417,13.437,13.437,0,0,0,1.911,7.455,5.731,5.731,0,0,0,5.008,2.867A5.716,5.716,0,0,0,70.782-9,13.362,13.362,0,0,0,72.693-16.414Zm6.958,0a15.745,15.745,0,0,1,2.944-9.825A9.112,9.112,0,0,1,90.164-30.1a9.084,9.084,0,0,1,7.569,3.9,15.681,15.681,0,0,1,2.944,9.787,15.95,15.95,0,0,1-2.944,9.825,9.112,9.112,0,0,1-7.569,3.861,9.112,9.112,0,0,1-7.569-3.861A15.95,15.95,0,0,1,79.651-16.414Zm17.433,0a13.245,13.245,0,0,0-1.911-7.417,5.716,5.716,0,0,0-5.008-2.905,5.716,5.716,0,0,0-5.008,2.905,13.245,13.245,0,0,0-1.911,7.417,13.437,13.437,0,0,0,1.911,7.455,5.731,5.731,0,0,0,5.008,2.867A5.716,5.716,0,0,0,95.172-9,13.362,13.362,0,0,0,97.083-16.414Z" transform="translate(309.108 1657.206)" fill="#fde293"/>
    <path id="Path_138" data-name="Path 138" d="M1.892-16.158A14.787,14.787,0,0,1,5.281-26.167,10.98,10.98,0,0,1,14-30.1a10.934,10.934,0,0,1,8.715,3.972,14.729,14.729,0,0,1,3.389,9.97A14.974,14.974,0,0,1,22.712-6.149,10.98,10.98,0,0,1,14-2.215,10.98,10.98,0,0,1,5.281-6.149,14.974,14.974,0,0,1,1.892-16.158Zm20.072,0a12.325,12.325,0,0,0-2.2-7.555A6.784,6.784,0,0,0,14-26.673a6.784,6.784,0,0,0-5.766,2.96,12.325,12.325,0,0,0-2.2,7.555,12.5,12.5,0,0,0,2.2,7.594A6.812,6.812,0,0,0,14-5.643,6.784,6.784,0,0,0,19.763-8.6,12.431,12.431,0,0,0,21.964-16.158ZM40.8-29.477V-2.839h-4.05v-22.2L30.9-22.778l-1.541-3.038,8.847-3.661Zm5.634,13.319a14.787,14.787,0,0,1,3.389-10.009A10.98,10.98,0,0,1,58.541-30.1a10.934,10.934,0,0,1,8.715,3.972,14.73,14.73,0,0,1,3.389,9.97A14.974,14.974,0,0,1,67.257-6.149a10.98,10.98,0,0,1-8.715,3.933,10.98,10.98,0,0,1-8.715-3.933A14.974,14.974,0,0,1,46.437-16.158Zm20.072,0a12.325,12.325,0,0,0-2.2-7.555,6.784,6.784,0,0,0-5.766-2.96,6.784,6.784,0,0,0-5.766,2.96,12.325,12.325,0,0,0-2.2,7.555,12.5,12.5,0,0,0,2.2,7.594,6.812,6.812,0,0,0,5.766,2.921A6.784,6.784,0,0,0,64.307-8.6,12.431,12.431,0,0,0,66.508-16.158ZM85.347-29.477V-2.839H81.3v-22.2l-5.854,2.259L73.9-25.816l8.847-3.661Zm5.634,13.319a14.787,14.787,0,0,1,3.389-10.009,10.98,10.98,0,0,1,8.715-3.933,10.934,10.934,0,0,1,8.715,3.972,14.729,14.729,0,0,1,3.389,9.97A14.974,14.974,0,0,1,111.8-6.149a10.98,10.98,0,0,1-8.715,3.933,10.98,10.98,0,0,1-8.715-3.933A14.974,14.974,0,0,1,90.982-16.158Zm20.072,0a12.325,12.325,0,0,0-2.2-7.555,6.784,6.784,0,0,0-5.766-2.96,6.784,6.784,0,0,0-5.766,2.96,12.325,12.325,0,0,0-2.2,7.555,12.5,12.5,0,0,0,2.2,7.594,6.812,6.812,0,0,0,5.766,2.921,6.784,6.784,0,0,0,5.766-2.96A12.431,12.431,0,0,0,111.053-16.158Z" transform="translate(411.751 1656.677)" fill="#d3e3f9"/>
    <path id="Path_139" data-name="Path 139" d="M1.892-15.83A17.182,17.182,0,0,1,4.771-26.074a8.75,8.75,0,0,1,7.4-4.026,8.728,8.728,0,0,1,7.4,4.066,17.111,17.111,0,0,1,2.879,10.2A17.408,17.408,0,0,1,19.579-5.587a8.75,8.75,0,0,1-7.4,4.026,8.75,8.75,0,0,1-7.4-4.026A17.408,17.408,0,0,1,1.892-15.83Zm17.051,0a14.514,14.514,0,0,0-1.87-7.733,5.535,5.535,0,0,0-4.9-3.029,5.535,5.535,0,0,0-4.9,3.029,14.514,14.514,0,0,0-1.87,7.733,14.727,14.727,0,0,0,1.87,7.773,5.545,5.545,0,0,0,4.9,2.989,5.535,5.535,0,0,0,4.9-3.029A14.643,14.643,0,0,0,18.943-15.83Zm6.805,0a17.182,17.182,0,0,1,2.879-10.244,8.75,8.75,0,0,1,7.4-4.026,8.728,8.728,0,0,1,7.4,4.066,17.111,17.111,0,0,1,2.879,10.2A17.408,17.408,0,0,1,43.435-5.587a8.75,8.75,0,0,1-7.4,4.026,8.749,8.749,0,0,1-7.4-4.026A17.408,17.408,0,0,1,25.748-15.83Zm17.051,0a14.514,14.514,0,0,0-1.87-7.733,5.535,5.535,0,0,0-4.9-3.029,5.535,5.535,0,0,0-4.9,3.029,14.514,14.514,0,0,0-1.87,7.733,14.727,14.727,0,0,0,1.87,7.773,5.545,5.545,0,0,0,4.9,2.989A5.535,5.535,0,0,0,40.93-8.1,14.643,14.643,0,0,0,42.8-15.83Zm16-13.632V-2.2h-3.44v-22.72L50.39-22.606l-1.309-3.109L56.6-29.462ZM63.589-15.83a17.182,17.182,0,0,1,2.879-10.244,8.75,8.75,0,0,1,7.4-4.026,8.728,8.728,0,0,1,7.4,4.066,17.111,17.111,0,0,1,2.879,10.2A17.408,17.408,0,0,1,81.276-5.587a8.75,8.75,0,0,1-7.4,4.026,8.75,8.75,0,0,1-7.4-4.026A17.408,17.408,0,0,1,63.589-15.83Zm17.051,0a14.514,14.514,0,0,0-1.87-7.733,5.535,5.535,0,0,0-4.9-3.029,5.535,5.535,0,0,0-4.9,3.029A14.514,14.514,0,0,0,67.1-15.83a14.727,14.727,0,0,0,1.87,7.773,5.545,5.545,0,0,0,4.9,2.989A5.535,5.535,0,0,0,78.77-8.1,14.643,14.643,0,0,0,80.64-15.83Zm6.805,0a17.182,17.182,0,0,1,2.879-10.244,8.75,8.75,0,0,1,7.4-4.026,8.728,8.728,0,0,1,7.4,4.066,17.11,17.11,0,0,1,2.879,10.2,17.408,17.408,0,0,1-2.879,10.244,8.75,8.75,0,0,1-7.4,4.026,8.75,8.75,0,0,1-7.4-4.026A17.408,17.408,0,0,1,87.446-15.83Zm17.051,0a14.514,14.514,0,0,0-1.87-7.733,5.535,5.535,0,0,0-4.9-3.029,5.535,5.535,0,0,0-4.9,3.029,14.514,14.514,0,0,0-1.87,7.733,14.727,14.727,0,0,0,1.87,7.773,5.545,5.545,0,0,0,4.9,2.989,5.535,5.535,0,0,0,4.9-3.029A14.643,14.643,0,0,0,104.5-15.83Z" transform="translate(528.989 1656.537)" fill="#fad2cf"/>
  </g>
</svg>
