<svg id="Semicircle" xmlns="http://www.w3.org/2000/svg" width="156" height="281" viewBox="0 0 156 281">
  <g id="Rectangle_26" data-name="Rectangle 26" fill="none" stroke="#ea4235" stroke-width="8">
    <path d="M140.5,0H156a0,0,0,0,1,0,0V281a0,0,0,0,1,0,0H140.5A140.5,140.5,0,0,1,0,140.5v0A140.5,140.5,0,0,1,140.5,0Z" stroke="none"/>
    <path d="M140.5,4h10.952a.548.548,0,0,1,.548.548v271.9a.548.548,0,0,1-.548.548H140.5A136.5,136.5,0,0,1,4,140.5v0A136.5,136.5,0,0,1,140.5,4Z" fill="none"/>
  </g>
</svg>
