<svg xmlns="http://www.w3.org/2000/svg" xmlns:xlink="http://www.w3.org/1999/xlink" width="45" height="40" viewBox="0 0 45 40">
  <defs>
    <clipPath id="clip-path">
      <rect id="Rectangle_19" data-name="Rectangle 19" width="45" height="40" fill="#4286f5" stroke="#707070" stroke-width="1"/>
    </clipPath>
  </defs>
  <g id="Twitter_icon" data-name="Twitter icon" clip-path="url(#clip-path)">
    <path id="twitter" d="M16.709,36.657a38.431,38.431,0,0,1-5.936-.471,27.858,27.858,0,0,1-8.12-2.955L0,31.78l2.873-.945c3.141-1.033,5.051-1.673,7.416-2.677a9.866,9.866,0,0,1-5.072-5.876l-.668-2.029.548.084A9.967,9.967,0,0,1,3.849,18.8a9.449,9.449,0,0,1-1.6-5.618l.126-1.771,1.06.411a9.913,9.913,0,0,1-.961-2.692,10.246,10.246,0,0,1,1.091-6.9l.924-1.7L5.722,2.017A22.735,22.735,0,0,0,20.45,10.309a8.809,8.809,0,0,1,.535-4.68,8.763,8.763,0,0,1,3.562-4.084A10.7,10.7,0,0,1,30.757.02a9.919,9.919,0,0,1,6.1,2.515,20.468,20.468,0,0,0,2.232-.745c.489-.184,1.044-.393,1.739-.633L43.383.276,41.715,5.041c.11-.009.223-.017.342-.022L44.789,4.9,43.174,7.1c-.093.126-.116.162-.149.212-.13.2-.292.44-2.509,3.4a4.175,4.175,0,0,0-.78,2.719,25.715,25.715,0,0,1-1.4,10.343,18.3,18.3,0,0,1-4.913,7.278,21.7,21.7,0,0,1-10.286,4.973,31.666,31.666,0,0,1-6.424.63Zm0,0" transform="translate(-0.325 1.733)" fill="#4286f5"/>
  </g>
</svg>
