<?xml version="1.0" encoding="UTF-8" standalone="no"?>
<svg
   xmlns:dc="http://purl.org/dc/elements/1.1/"
   xmlns:cc="http://creativecommons.org/ns#"
   xmlns:rdf="http://www.w3.org/1999/02/22-rdf-syntax-ns#"
   xmlns:svg="http://www.w3.org/2000/svg"
   xmlns="http://www.w3.org/2000/svg"
   xmlns:sodipodi="http://sodipodi.sourceforge.net/DTD/sodipodi-0.dtd"
   xmlns:inkscape="http://www.inkscape.org/namespaces/inkscape"
   width="1828.4858"
   height="857.59998"
   viewBox="0 0 1828.4858 857.59998"
   version="1.1"
   id="svg88"
   sodipodi:docname="web-bg.svg"
   inkscape:version="0.92.3 (2405546, 2018-03-11)">
  <metadata
     id="metadata92">
    <rdf:RDF>
      <cc:Work
         rdf:about="">
        <dc:format>image/svg+xml</dc:format>
        <dc:type
           rdf:resource="http://purl.org/dc/dcmitype/StillImage" />
        <dc:title></dc:title>
      </cc:Work>
    </rdf:RDF>
  </metadata>
  <sodipodi:namedview
     pagecolor="#ffffff"
     bordercolor="#666666"
     borderopacity="1"
     objecttolerance="10"
     gridtolerance="10"
     guidetolerance="10"
     inkscape:pageopacity="0"
     inkscape:pageshadow="2"
     inkscape:window-width="1920"
     inkscape:window-height="1016"
     id="namedview90"
     showgrid="false"
     inkscape:zoom="0.36458333"
     inkscape:cx="1262.4983"
     inkscape:cy="389.22382"
     inkscape:window-x="0"
     inkscape:window-y="30"
     inkscape:window-maximized="1"
     inkscape:current-layer="svg88"
     fit-margin-top="0"
     fit-margin-left="0"
     fit-margin-right="0"
     fit-margin-bottom="0" />
  <defs
     id="defs5">
    <clipPath
       id="clip-Hero_Image_for_1920_X_1080">
      <rect
         width="1920"
         height="1064"
         id="rect2"
         x="0"
         y="0" />
    </clipPath>
  </defs>
  <g
     id="g1489"
     transform="translate(30.171429,38.400002)">
    <rect
       width="1828.4858"
       height="857.59998"
       id="rect7"
       x="-30.171429"
       y="-38.400002"
       style="fill:#ffffff;stroke-width:0.87612641" />
    <text
       y="253"
       x="555"
       id="_1"
       data-name="1"
       font-size="89"
       style="font-size:89px;font-family:ProductSans-Regular, 'Product Sans';fill:#d3e3f9">
      <tspan
         x="537.91199"
         y="253"
         id="tspan9">1</tspan>
    </text>
    <text
       y="337"
       x="1443"
       id="_1-2"
       data-name="1"
       font-size="54"
       style="font-size:54px;font-family:ProductSans-Regular, 'Product Sans';fill:#ff6c00">
      <tspan
         x="1432.632"
         y="337"
         id="tspan12">1</tspan>
    </text>
    <text
       y="127"
       x="842"
       id="_0"
       data-name="0"
       font-size="56"
       style="font-size:56px;font-family:ProductSans-Regular, 'Product Sans';fill:#fde293">
      <tspan
         x="824.13599"
         y="127"
         id="tspan15">0</tspan>
    </text>
    <text
       y="335"
       x="132"
       id="_1-3"
       data-name="1"
       font-size="89"
       style="font-size:89px;font-family:ProductSans-Regular, 'Product Sans';fill:#fde293">
      <tspan
         x="114.912"
         y="335"
         id="tspan18">1</tspan>
    </text>
    <text
       y="486"
       x="269"
       id="_0-2"
       data-name="0"
       font-size="89"
       style="font-size:89px;font-family:ProductSans-Regular, 'Product Sans';fill:#ea4235">
      <tspan
         x="240.60901"
         y="486"
         id="tspan21">0</tspan>
    </text>
    <text
       y="704"
       x="87"
       id="_0-3"
       data-name="0"
       font-size="89"
       style="font-size:89px;font-family:ProductSans-Regular, 'Product Sans';fill:#1ce8b5">
      <tspan
         x="58.608994"
         y="704"
         id="tspan24">0</tspan>
    </text>
    <g
       id="Group_11"
       data-name="Group 11"
       transform="translate(-419,-60)">
      <rect
         id="Rectangle_25"
         data-name="Rectangle 25"
         width="53"
         height="141"
         transform="translate(787,663)"
         x="0"
         y="0"
         style="fill:#fad2cf" />
      <g
         id="HealthCare"
         transform="translate(817.944,680.992)">
        <g
           id="Group_8"
           data-name="Group 8"
           transform="translate(0,11.508)">
          <g
             id="Group_7"
             data-name="Group 7">
            <path
               id="Path_89"
               data-name="Path 89"
               d="m 86.016,57.451 a 10.047,10.047 0 0 0 -8.509,-8.509 v -2.609 c 0,-7.2 -5.473,-13.061 -12.2,-13.061 -6.534,0 -12,5.684 -12.2,12.671 h 0.083 l -0.083,0.014 v 28.286 c 0,9.043 -6.76,16.386 -15.071,16.386 -8.311,0 -15.071,-7.354 -15.071,-16.386 v -2.45 c 2.081,0 4.306,-1.509 4.306,-5.741 v -3.61 C 36.483,60.086 43.06,52.176 43.06,43.208 v -2.992 h -2.871 l -0.06,-18.681 a 7.184,7.184 0 0 0 -5.9,-7.026 4.283,4.283 0 1 0 -0.1,2.927 4.306,4.306 0 0 1 3.128,4.108 l 0.065,18.672 h -2.874 v 3.034 a 11.414,11.414 0 0 1 -8.262,10.709 13.051,13.051 0 0 1 -7.894,0 A 11.408,11.408 0 0 1 10.047,43.25 V 40.216 H 5.741 V 21.557 A 4.306,4.306 0 0 1 8.927,17.418 4.326,4.326 0 1 0 8.839,14.5 7.177,7.177 0 0 0 2.871,21.555 V 40.216 H 0 V 43.2 c 0,8.978 6.581,16.891 15.788,19.24 v 3.61 c 0,4.233 2.225,5.741 4.306,5.741 v 2.45 c 0,10.621 8.048,19.256 17.941,19.256 9.893,0 17.941,-8.645 17.941,-19.256 V 46.026 c 0.144,-5.447 4.332,-9.879 9.33,-9.879 5.144,0 9.33,4.57 9.33,10.191 v 2.605 a 10.047,10.047 0 1 0 11.38,8.509 z m -55.874,-40.2 a 1.435,1.435 0 1 1 1.435,-1.435 1.435,1.435 0 0 1 -1.435,1.435 z M 12.918,14.38 a 1.435,1.435 0 1 1 -1.435,1.435 1.435,1.435 0 0 1 1.435,-1.435 z M 2.871,43.2 v -0.115 h 4.306 v 0.164 a 14.261,14.261 0 0 0 10.245,13.44 15.971,15.971 0 0 0 9.642,0 14.264,14.264 0 0 0 10.254,-13.439 v -0.164 h 2.871 V 43.2 c 0,7.985 -6.155,15.011 -14.64,16.71 a 20.475,20.475 0 0 1 -6.056,0.3 18.749,18.749 0 0 1 -1.982,-0.3 C 9.025,58.212 2.871,51.186 2.871,43.2 Z m 17.223,25.722 c -1.292,0 -1.435,-2.009 -1.435,-2.871 v -3.045 c 0.115,0.014 0.233,0.02 0.349,0.032 0.144,0.016 0.287,0.027 0.431,0.04 0.679,0.06 1.364,0.1 2.054,0.1 h 0.072 c 0.689,0 1.372,-0.042 2.047,-0.1 0.144,-0.013 0.3,-0.024 0.444,-0.04 0.113,-0.013 0.231,-0.017 0.344,-0.032 v 3.046 c 0,0.861 -0.144,2.871 -1.435,2.871 z m 55.977,-2.871 a 7.177,7.177 0 1 1 7.177,-7.177 7.177,7.177 0 0 1 -7.176,7.177 z"
               transform="translate(0,-11.508)"
               inkscape:connector-curvature="0"
               style="fill:#ea4235" />
          </g>
        </g>
        <g
           id="Group_10"
           data-name="Group 10"
           transform="translate(71.766,54.569)">
          <g
             id="Group_9"
             data-name="Group 9">
            <path
               id="Path_90"
               data-name="Path 90"
               d="m 404.306,251.515 a 4.306,4.306 0 1 0 4.306,4.306 4.306,4.306 0 0 0 -4.306,-4.306 z m 0,5.741 a 1.435,1.435 0 1 1 1.435,-1.435 1.435,1.435 0 0 1 -1.435,1.435 z"
               transform="translate(-400,-251.515)"
               inkscape:connector-curvature="0"
               style="fill:#ea4235" />
          </g>
        </g>
      </g>
    </g>
    <text
       y="782"
       x="948"
       id="_1-4"
       data-name="1"
       font-size="163"
       style="font-size:163px;font-family:ProductSans-Regular, 'Product Sans';fill:#fad2cf">
      <tspan
         x="916.70398"
         y="782"
         id="tspan36">1</tspan>
    </text>
    <text
       y="136"
       x="367"
       id="_1-5"
       data-name="1"
       font-size="89"
       style="font-size:89px;font-family:ProductSans-Regular, 'Product Sans';fill:#a8dab5">
      <tspan
         x="349.91199"
         y="136"
         id="tspan39">1</tspan>
    </text>
    <text
       y="230"
       x="1551"
       id="_1-6"
       data-name="1"
       font-size="171"
       style="font-size:171px;font-family:ProductSans-Regular, 'Product Sans';fill:#4286f5">
      <tspan
         x="1518.168"
         y="230"
         id="tspan42">1</tspan>
    </text>
    <text
       y="775"
       x="1506"
       id="_1-7"
       data-name="1"
       font-size="116"
       style="font-size:116px;font-family:ProductSans-Regular, 'Product Sans';fill:#a8dab5">
      <tspan
         x="1483.728"
         y="775"
         id="tspan45">1</tspan>
    </text>
    <g
       transform="translate(-97,-168)"
       id="Group_13"
       data-name="Group 13">
      <rect
         id="Rectangle_25-2"
         data-name="Rectangle 25"
         width="53"
         height="141"
         transform="translate(97,168)"
         x="0"
         y="0"
         style="fill:#d3e3f9" />
      <g
         id="Education"
         transform="translate(119.731,160.721)">
        <g
           id="Group_12"
           data-name="Group 12"
           transform="translate(0,41.75)">
          <path
             id="Path_91"
             data-name="Path 91"
             d="M 84.823,59.966 49.848,42.881 a 14.324,14.324 0 0 0 -11.156,0 L 2.915,59.966 C 0.4,61.172 0,62.88 0,63.785 0,64.69 0.4,66.3 2.915,67.6 l 2.915,1.407 v 16.08 A 4.924,4.924 0 0 0 2.714,89.61 4.989,4.989 0 0 0 5.729,94.133 L 1.206,108.508 H 13.869 L 9.347,94.136 a 4.869,4.869 0 0 0 -0.1,-9.045 V 70.719 l 5.327,2.613 v 20.9 a 1.621,1.621 0 0 0 0.3,0.9 c 0.5,0.6 9.849,13.367 28.944,13.367 19.095,0 28.442,-12.855 28.844,-13.358 a 1.621,1.621 0 0 0 0.3,-0.9 v -20.8 L 84.823,67.6 c 2.513,-1.206 2.915,-2.915 2.915,-3.819 A 4.493,4.493 0 0 0 84.823,59.966 Z M 69.747,93.734 A 33.607,33.607 0 0 1 43.818,105.392 33.607,33.607 0 0 1 17.889,93.734 V 74.739 l 20.8,9.95 a 13.553,13.553 0 0 0 5.528,1.106 12.238,12.238 0 0 0 5.628,-1.206 l 19.9,-9.749 z M 83.416,64.79 71.356,70.72 a 1.155,1.155 0 0 0 -1.106,0.6 L 48.441,81.875 a 11.158,11.158 0 0 1 -8.442,0 L 13.166,69.011 44.02,65.393 a 1.5652041,1.5652041 0 1 0 -0.3,-3.116 L 7.94,66.5 4.322,64.79 a 2.027,2.027 0 0 1 -1.106,-0.9 c 0,-0.1 0.2,-0.5 1.106,-0.9 L 40.1,45.8 a 10.382,10.382 0 0 1 4.121,-0.8 10.187,10.187 0 0 1 4.221,0.8 l 34.974,17.08 c 0.9,0.4 1.106,0.8 1.106,1.005 a 2.763,2.763 0 0 1 -1.106,0.905 z"
             transform="translate(0,-41.75)"
             inkscape:connector-curvature="0"
             style="fill:#4286f5" />
        </g>
      </g>
    </g>
    <g
       transform="translate(-97,-168)"
       id="Group_14"
       data-name="Group 14">
      <rect
         id="Rectangle_25-3"
         data-name="Rectangle 25"
         width="53"
         height="141"
         transform="translate(1292,289)"
         x="0"
         y="0"
         style="fill:#a8dab5" />
      <path
         id="Environment"
         d="M 82.021,9.673 A 33.4,33.4 0 0 0 79.128,3.088 1.24,1.24 0 0 0 77.816,2.534 33.388,33.388 0 0 0 71.078,5.048 c -4.779,2.386 -8.118,5.571 -9.656,9.21 a 17.841,17.841 0 0 0 -0.556,10.828 34.48,34.48 0 0 0 -6.483,-5.642 50.222,50.222 0 0 0 -5.634,-8.637 1.216,1.216 0 0 0 -1.887,1.533 48.683,48.683 0 0 1 4.486,6.6 L 40.273,16.782 29.75,2.429 a 17.154,17.154 0 0 1 3.067,0.313 21,21 0 0 1 9.5,4.9 1.217,1.217 0 0 0 1.577,-1.851 23.39,23.39 0 0 0 -10.61,-5.436 C 27.713,-0.735 21.216,0.7 14.492,4.5 a 48.544,48.544 0 0 0 -8.5,6.073 1.287,1.287 0 0 0 -0.144,1.669 49.611,49.611 0 0 0 5.452,8.558 38.02,38.02 0 0 0 5.748,5.908 q -0.85,0.712 -1.651,1.493 A 28.11,28.11 0 0 0 24.49,74.337 1.217,1.217 0 0 0 25.404,72.084 25.669,25.669 0 0 1 20.145,69.191 13.7,13.7 0 0 0 18.08,59.6 C 17.694,59 18.847,56.642 19.535,55.234 A 22.8,22.8 0 0 0 21.321,50.869 3.327,3.327 0 0 0 20.138,47.224 8.973,8.973 0 0 0 17.247,45.943 6.219,6.219 0 0 1 15.659,45.321 16.208,16.208 0 0 1 13.6,41.971 20.787,20.787 0 0 0 11.378,38.318 25.856,25.856 0 0 1 19.053,28.205 21.266,21.266 0 0 0 29.3,32.013 c -4.3,3.329 -5.687,7.581 -3.7,11.665 2.32,4.769 7.1,4.007 11.309,3.336 0.729,-0.117 1.483,-0.237 2.206,-0.327 0.271,-0.034 0.353,0.04 0.407,0.088 0.923,0.821 0.9,4.74 0.875,7.6 -0.027,3.959 -0.052,7.7 1.423,9.619 a 3.712,3.712 0 0 0 3.053,1.479 6.129,6.129 0 0 0 2.4,-0.543 c 3.667,-1.57 7.479,-6.3 6.9,-10.037 -0.508,-3.27 -0.844,-5.43 -0.052,-7.171 0.733,-1.611 2.505,-3.1 6,-5.007 A 25.675,25.675 0 0 1 32.213,73.8 1.217,1.217 0 0 0 31.947,76.217 28.263,28.263 0 0 0 54.705,68.372 28.091,28.091 0 0 0 50.38,24.743 c 1.606,-1.145 2.8,-2.136 3.467,-2.711 a 32.283,32.283 0 1 1 -50.641,21 1.217,1.217 0 0 0 -2.4,-0.4 A 34.7,34.7 0 0 0 29.4,82.528 35.185,35.185 0 0 0 35.13,83 34.727,34.727 0 0 0 66.884,34.435 35.017,35.017 0 0 0 72.49,32.227 c 4.778,-2.386 8.117,-5.571 9.655,-9.21 1.538,-3.639 1.5,-8.254 -0.124,-13.343 z M 11.45,43.106 a 15.142,15.142 0 0 0 2.649,4.08 6.974,6.974 0 0 0 2.434,1.081 c 2.376,0.731 2.653,1.089 2.425,2.029 a 21.224,21.224 0 0 1 -1.606,3.869 c -1.256,2.569 -2.442,4.995 -1.318,6.748 a 11.564,11.564 0 0 1 1.84,6.451 25.915,25.915 0 0 1 -7.494,-26.22 c 0.358,0.613 0.734,1.325 1.07,1.962 z M 70.278,19.212 66.823,10.838 A 22.756,22.756 0 0 1 72.117,7.249 32.456,32.456 0 0 1 75.959,5.631 Z M 78.2,6.574 a 32.614,32.614 0 0 1 1.521,3.888 23.247,23.247 0 0 1 1.1,5.862 l -8.1,3.341 z m -14.538,8.632 a 11.58,11.58 0 0 1 1.358,-2.36 l 3.934,9.532 -3.53,8.441 a 32.283,32.283 0 0 1 -1.575,-4 c -0.994,-3.143 -1.833,-7.71 -0.186,-11.608 z m 7.79,14.821 A 32.3,32.3 0 0 1 67.731,31.6 L 71.394,22.843 80.718,19 a 11.73,11.73 0 0 1 -0.813,3.073 c -1.647,3.9 -5.506,6.479 -8.453,7.957 z M 27.608,29.335 c -0.43,-0.084 -0.854,-0.187 -1.272,-0.3 l 13.457,-9.864 11.081,2.16 c -4.037,3.18 -13.86,9.852 -23.266,8.009 z m -12.3,-7.607 a 47.338,47.338 0 0 1 -6.2,-8.542 l 14.1,2.749 z M 17.8,5.5 23.7,13.547 9.507,10.785 A 47.933,47.933 0 0 1 17.8,5.5 Z m 9.418,8.733 -7.153,-9.752 a 27.35,27.35 0 0 1 6.8,-1.88 l 9.895,13.5 z m -0.757,2.33 10.085,1.966 L 23.6,28.02 a 25.156,25.156 0 0 1 -6.559,-4.549 z m 32.993,23.748 c -4.384,2.335 -6.53,4.17 -7.548,6.407 -1.094,2.4 -0.693,4.982 -0.138,8.551 0.328,2.1 -2.174,6.024 -5.451,7.428 -1.213,0.519 -2.077,0.458 -2.568,-0.183 -0.966,-1.257 -0.94,-5.063 -0.919,-8.12 0.029,-4.23 0.054,-7.883 -1.691,-9.436 a 2.866,2.866 0 0 0 -2.323,-0.685 c -0.764,0.1 -1.54,0.219 -2.289,0.338 -4.47,0.712 -7.282,1 -8.739,-2 -2.361,-4.852 2.418,-8.445 4.582,-9.765 a 7.7,7.7 0 0 0 1.229,-0.938 35.352,35.352 0 0 0 14.577,-5.68 25.81,25.81 0 0 1 11.279,14.08 z m 0,0"
         transform="translate(1319.665,318)"
         inkscape:connector-curvature="0"
         style="fill:#109d58" />
    </g>
    <text
       y="580"
       x="1244"
       id="_0-4"
       data-name="0"
       font-size="89"
       style="font-size:89px;font-family:ProductSans-Regular, 'Product Sans';fill:#d3e3f9">
      <tspan
         x="1215.609"
         y="580"
         id="tspan62">0</tspan>
    </text>
    <text
       y="739"
       x="1324"
       id="_0-5"
       data-name="0"
       font-size="68"
       style="font-size:68px;font-family:ProductSans-Regular, 'Product Sans';fill:#4286f5">
      <tspan
         x="1302.308"
         y="739"
         id="tspan65">0</tspan>
    </text>
    <g
       transform="translate(-97,-168)"
       id="Group_15"
       data-name="Group 15">
      <rect
         id="Rectangle_25-4"
         data-name="Rectangle 25"
         width="53"
         height="141"
         transform="translate(1682,641)"
         x="0"
         y="0"
         style="fill:#fef7e0" />
      <g
         id="surface1"
         transform="translate(1698,693.48)">
        <path
           id="Path_92"
           data-name="Path 92"
           d="m 240,86.891 h 7.741 v 3.871 H 240 Z m 0,0"
           transform="translate(-177.164,-63.059)"
           inkscape:connector-curvature="0"
           style="fill:#fabb04" />
        <path
           id="Path_93"
           data-name="Path 93"
           d="M 146.37,15.748 129.558,13.286 A 84.144,84.144 0 0 0 120.031,8.108 81.582,81.582 0 0 0 85.552,0.492 H 82.631 A 82.468,82.468 0 0 0 42.462,11 l -8.484,4.747 A 57.36,57.36 0 0 0 5.678,23.616 11.645,11.645 0 0 0 0,33.649 v 15.073 a 2.507,2.507 0 0 0 2.475,2.539 h 8.31 a 14.7,14.7 0 0 0 18.856,9.3 14.989,14.989 0 0 0 9.068,-9.3 h 66.122 a 14.7,14.7 0 0 0 18.856,9.3 14.991,14.991 0 0 0 9.068,-9.3 h 0.888 a 2.431,2.431 0 0 0 0.921,-0.181 l 8.016,-3.3 a 9.6,9.6 0 0 0 5.913,-8.958 V 18.261 A 2.52,2.52 0 0 0 146.37,15.748 Z M 34.448,48.215 a 9.909,9.909 0 0 1 -11.681,7.915 10.15,10.15 0 0 1 -7.718,-11.982 9.91,9.91 0 0 1 11.682,-7.915 10.094,10.094 0 0 1 7.917,9.951 10.409,10.409 0 0 1 -0.2,2.031 z M 79.2,46.184 H 39.6 A 15.043,15.043 0 0 0 24.749,30.953 15.044,15.044 0 0 0 9.9,46.184 H 4.95 V 33.649 A 6.525,6.525 0 0 1 8.135,28.022 52.477,52.477 0 0 1 34.648,20.8 H 79.2 Z m 0,-30.461 H 44.355 l 0.477,-0.268 A 77.627,77.627 0 0 1 79.2,5.68 Z M 84.15,5.569 h 1.4 a 76.613,76.613 0 0 1 29.121,5.722 l -4.321,4.432 h -26.2 z m 44.348,42.647 a 9.909,9.909 0 0 1 -11.682,7.915 10.15,10.15 0 0 1 -7.716,-11.982 9.91,9.91 0 0 1 11.682,-7.915 10.094,10.094 0 0 1 7.917,9.951 10.408,10.408 0 0 1 -0.205,2.03 z m 15.05,-24.878 h -7.425 v 5.078 h 7.425 v 10.407 a 4.544,4.544 0 0 1 -2.8,4.241 l -7.1,2.924 c 0,-0.233 -0.029,-0.465 -0.044,-0.7 -0.015,-0.235 -0.02,-0.507 -0.044,-0.761 -0.024,-0.254 -0.075,-0.508 -0.114,-0.761 -0.039,-0.253 -0.069,-0.508 -0.119,-0.739 -0.05,-0.231 -0.122,-0.487 -0.186,-0.729 -0.064,-0.242 -0.114,-0.484 -0.188,-0.721 -0.074,-0.237 -0.163,-0.462 -0.247,-0.693 -0.084,-0.231 -0.161,-0.469 -0.248,-0.7 -0.087,-0.231 -0.2,-0.436 -0.307,-0.652 -0.107,-0.216 -0.205,-0.452 -0.321,-0.67 -0.116,-0.218 -0.248,-0.4 -0.36,-0.606 -0.112,-0.206 -0.247,-0.435 -0.388,-0.642 -0.141,-0.207 -0.273,-0.373 -0.409,-0.561 -0.136,-0.188 -0.29,-0.409 -0.448,-0.6 -0.158,-0.191 -0.306,-0.348 -0.46,-0.508 -0.154,-0.16 -0.324,-0.375 -0.494,-0.553 -0.17,-0.178 -0.339,-0.318 -0.51,-0.475 -0.171,-0.157 -0.354,-0.343 -0.543,-0.508 -0.189,-0.165 -0.379,-0.291 -0.566,-0.436 -0.187,-0.145 -0.377,-0.3 -0.574,-0.435 -0.197,-0.135 -0.421,-0.253 -0.633,-0.4 -0.212,-0.147 -0.387,-0.254 -0.587,-0.363 -0.2,-0.109 -0.45,-0.224 -0.678,-0.336 -0.228,-0.112 -0.406,-0.211 -0.616,-0.3 -0.21,-0.089 -0.5,-0.188 -0.742,-0.279 -0.242,-0.091 -0.409,-0.163 -0.619,-0.231 -0.282,-0.089 -0.571,-0.153 -0.859,-0.226 -0.188,-0.045 -0.369,-0.106 -0.559,-0.146 -0.3,-0.064 -0.616,-0.1 -0.926,-0.146 -0.183,-0.025 -0.359,-0.066 -0.542,-0.084 a 14.669,14.669 0 0 0 -1.51,-0.079 15.058,15.058 0 0 0 -14.85,15.231 H 84.147 V 20.8 h 27.223 a 2.44,2.44 0 0 0 1.749,-0.744 l 6.418,-6.583 a 78.77,78.77 0 0 1 7.846,4.4 2.445,2.445 0 0 0 0.96,0.36 l 15.2,2.226 z m 0,0"
           inkscape:connector-curvature="0"
           style="fill:#fabb04" />
      </g>
    </g>
    <text
       y="108.08572"
       x="1666.5714"
       id="_0-6"
       data-name="0"
       font-size="125"
       style="font-size:125px;font-family:ProductSans-Regular, 'Product Sans';fill:#a8dab5">
      <tspan
         x="1626.6964"
         y="108.08572"
         id="tspan73">0</tspan>
    </text>
  </g>
</svg>
